<svg width="63" height="61" viewBox="0 0 63 61" fill="none" xmlns="http://www.w3.org/2000/svg">
<path d="M11.0582 0H51.3881C57.5027 0 62.4463 4.94367 62.4463 11.0582V49.827C62.4463 55.9415 57.5027 60.8852 51.3881 60.8852H11.0582C4.94367 60.8852 0 55.9415 0 49.827V11.0582C0 4.94367 4.94367 0 11.0582 0Z" fill="#00005B"/>
<path d="M25.0826 36.427H15.4035L13.426 42.5675C13.374 42.8017 13.1658 42.9578 12.9316 42.9318H8.04C7.75379 42.9318 7.67573 42.7757 7.75379 42.4635L16.132 18.4476C16.2101 18.1874 16.2881 17.9533 16.3922 17.641C16.4963 17.0946 16.5483 16.5222 16.5483 15.9498C16.5223 15.8197 16.6264 15.6896 16.7565 15.6636H16.8345H23.4955C23.6776 15.6636 23.8077 15.7416 23.8337 15.8717L33.3308 42.4114C33.4088 42.6976 33.3308 42.8277 33.0706 42.8277H27.6325C27.4504 42.8538 27.2683 42.7237 27.2162 42.5415L25.0826 36.2969V36.427ZM16.9126 31.2491H23.5215C23.3654 30.7027 23.1572 30.0523 22.923 29.3758C22.6889 28.6732 22.4547 27.9187 22.2205 27.1381C21.9603 26.3315 21.7262 25.5509 21.466 24.7443C21.2058 23.9377 20.9716 23.1832 20.7634 22.4286C20.5553 21.7001 20.3732 21.0236 20.191 20.3991H20.139C19.9048 21.5179 19.6186 22.6368 19.2543 23.7556C18.864 25.0045 18.4737 26.3055 18.0574 27.6064C17.7192 28.9334 17.3029 30.1563 16.9126 31.2491Z" fill="#9999FF"/>
<path d="M48.6561 34.0854H40.408C40.512 34.892 40.7722 35.6986 41.2146 36.4011C41.6829 37.1036 42.3334 37.6501 43.114 37.9623C44.1547 38.4046 45.2996 38.6388 46.4444 38.6128C47.3551 38.5867 48.2658 38.5087 49.1504 38.3266C49.957 38.2225 50.7376 38.0143 51.4662 37.7281C51.5963 37.624 51.6743 37.6761 51.6743 37.9363V41.9172C51.6743 42.0213 51.6483 42.1254 51.6223 42.2295C51.5702 42.3075 51.5182 42.3595 51.4401 42.4116C50.6075 42.7759 49.7489 43.036 48.8382 43.1922C47.6153 43.4263 46.3924 43.5304 45.1435 43.5044C43.166 43.5044 41.5008 43.1922 40.1478 42.5937C38.8728 42.0473 37.754 41.1887 36.8693 40.1219C36.0367 39.1071 35.4383 37.9623 35.074 36.7134C34.7097 35.4905 34.5276 34.2155 34.5276 32.9145C34.5276 31.5095 34.7357 30.1305 35.1781 28.7775C35.5944 27.4765 36.2449 26.2796 37.1295 25.2128C37.9882 24.172 39.055 23.3394 40.2779 22.741C41.5008 22.1425 42.9578 21.9344 44.6231 21.9344C46.0021 21.9084 47.3811 22.1686 48.6561 22.741C49.7229 23.2093 50.6596 23.9119 51.3881 24.8225C52.0646 25.7072 52.611 26.6959 52.9493 27.7887C53.2875 28.8295 53.4436 29.8963 53.4436 30.9631C53.4436 31.5876 53.4176 32.134 53.3916 32.6283C53.3396 33.1227 53.3135 33.487 53.2875 33.7211C53.2615 33.9033 53.1054 34.0594 52.9232 34.0594C52.7671 34.0594 52.4809 34.0854 52.0646 34.1114C51.6483 34.1635 51.1539 34.1895 50.5555 34.1895C49.957 34.1895 49.3326 34.0854 48.6561 34.0854ZM40.408 30.2866H45.898C46.5745 30.2866 47.0689 30.2866 47.3811 30.2606C47.5893 30.2345 47.7974 30.1825 47.9796 30.0524V29.7922C47.9796 29.454 47.9275 29.1417 47.8235 28.8295C47.3551 27.3724 45.9761 26.3837 44.4409 26.4357C43.0099 26.3577 41.6569 27.1122 40.9804 28.4132C40.6681 29.0116 40.486 29.6361 40.408 30.2866Z" fill="#9999FF"/>
</svg>
