<svg width="63" height="63" viewBox="0 0 63 63" fill="none" xmlns="http://www.w3.org/2000/svg">
<g clip-path="url(#clip0_32292_15654)">
<path fill-rule="evenodd" clip-rule="evenodd" d="M62.446 6.09876C62.446 2.733 59.7136 0.000488281 56.3478 0.000488281H6.09846C2.7327 0.000488281 0.000183105 2.733 0.000183105 6.09876V56.3486C0.000183105 59.7143 2.7327 62.4468 6.09846 62.4468H56.3478C59.7136 62.4468 62.4461 59.7143 62.4461 56.3486L62.446 6.09876Z" fill="#4E3188"/>
<path fill-rule="evenodd" clip-rule="evenodd" d="M57.8738 39.6446V55.4338C57.8738 56.7638 56.8072 57.8467 55.4833 57.8727L39.3582 57.8726L28.8302 39.6446H57.8738ZM36.9592 57.8726H8.43266L22.7038 33.192L36.9592 57.8726ZM6.14214 57.7123C5.27924 57.3815 4.65173 56.5748 4.5816 55.6147L4.57489 44.7315L16.172 24.6529H25.2365L6.14214 57.7123ZM33.5265 24.6154C34.3162 24.6186 35.0718 25.0825 35.4797 25.7701C35.484 25.777 35.4919 25.791 35.4919 25.791L37.8886 29.941L37.9093 29.9754C38.3008 30.6605 38.3161 31.5237 37.9245 32.2212C37.1214 33.6264 36.3054 35.0248 35.4956 36.4266C35.098 37.1083 34.3455 37.5532 33.5454 37.5631C32.019 37.5695 28.9582 37.566 28.954 37.566C28.1642 37.5627 27.3965 37.1416 26.9879 36.4541C26.9787 36.4392 26.9617 36.4087 26.9617 36.4087C26.9617 36.4087 24.5638 32.2583 24.5589 32.2487C24.1668 31.5636 24.1674 30.6786 24.5589 29.981C24.5644 29.9708 24.5766 29.9503 24.5766 29.9503C24.5766 29.9503 26.1811 27.1672 26.9842 25.7756C27.3818 25.0939 28.1362 24.6249 28.9357 24.6149C28.9491 24.6148 28.9759 24.6142 28.9759 24.6142L33.499 24.6154H33.5265ZM56.2206 4.70387L37.2397 37.566H57.8738V7.01353C57.8738 5.94231 57.1817 5.03141 56.2206 4.70387ZM27.7691 4.57422H53.8959L39.7662 29.0379L26.7031 6.42053L27.7691 4.57422ZM33.6344 22.5758H17.3715L25.503 8.49761L33.6344 22.5758Z" fill="url(#paint0_radial_32292_15654)"/>
</g>
<defs>
<radialGradient id="paint0_radial_32292_15654" cx="0" cy="0" r="1" gradientUnits="userSpaceOnUse" gradientTransform="translate(45.3132 -5.44275) scale(63.3154 63.3154)">
<stop stop-color="#F9A6FF"/>
<stop offset="1" stop-color="#EA73FF"/>
</radialGradient>
<clipPath id="clip0_32292_15654">
<rect width="62.4463" height="62.4463" fill="white"/>
</clipPath>
</defs>
</svg>
