<svg width="63" height="63" viewBox="0 0 63 63" fill="none" xmlns="http://www.w3.org/2000/svg">
<path fill-rule="evenodd" clip-rule="evenodd" d="M62.4463 6.09779C62.4463 2.73203 59.7138 -0.000488281 56.3481 -0.000488281H6.09828C2.73252 -0.000488281 0 2.73203 0 6.09779V56.3476C0 59.7133 2.73252 62.4459 6.09828 62.4459H56.3481C59.7138 62.4459 62.4463 59.7133 62.4463 56.3476V6.09779Z" fill="#891B26"/>
<path fill-rule="evenodd" clip-rule="evenodd" d="M28.224 57.6695L12.5027 30.45L4.37122 44.5282V55.2302C4.37122 56.5765 5.46403 57.6695 6.81053 57.6695H28.224ZM39.6882 57.6695H30.6237C30.6237 57.6695 18.8815 37.3326 14.9475 30.5287C14.1772 29.1963 14.1766 27.5485 14.9468 26.2158C16.3696 23.754 18.235 20.5255 18.235 20.5255L39.6882 57.6695ZM51.1523 57.6695H42.0878L19.5675 18.2181L23.9668 10.6019L51.1523 57.6695ZM57.6702 49.1062V55.2302C57.6702 56.5765 56.5773 57.6695 55.2308 57.6695H53.552L25.1663 8.52481L27.566 4.37061H31.8317L57.6702 49.1062ZM55.2308 4.37061H34.2308L57.6702 44.952V6.80992C57.6702 5.4636 56.5773 4.37061 55.2308 4.37061Z" fill="url(#paint0_radial_32292_15658)"/>
<defs>
<radialGradient id="paint0_radial_32292_15658" cx="0" cy="0" r="1" gradientUnits="userSpaceOnUse" gradientTransform="translate(45.1047 -5.64643) scale(63.316)">
<stop stop-color="#FFAE71"/>
<stop offset="1" stop-color="#FF9350"/>
</radialGradient>
</defs>
</svg>
