<svg width="63" height="63" viewBox="0 0 63 63" fill="none" xmlns="http://www.w3.org/2000/svg">
<g clip-path="url(#clip0_32292_15650)">
<path fill-rule="evenodd" clip-rule="evenodd" d="M62.4463 6.09876C62.4463 2.733 59.7138 0.000488281 56.3481 0.000488281H6.09828C2.73252 0.000488281 0 2.733 0 6.09876V56.3486C0 59.7143 2.73252 62.4468 6.09828 62.4468H56.3481C59.7138 62.4468 62.4463 59.7143 62.4463 56.3486V6.09876Z" fill="#134881"/>
<path fill-rule="evenodd" clip-rule="evenodd" d="M57.8726 55.4528C57.8622 56.7904 56.7731 57.8732 55.4333 57.8732H30.8152L20.2926 39.6469H57.8726V55.4528ZM4.57367 55.4338V44.7322L27.7587 4.57422H36.8195L17.2325 38.5008L28.4167 57.8732H7.01298C5.66648 57.8732 4.57367 56.7802 4.57367 55.4338ZM34.2826 37.5686H25.1218C24.0991 37.5686 23.1539 37.0319 22.6429 36.146C22.1318 35.2617 22.1318 34.1682 22.6429 33.2838L27.2257 25.3457L34.2826 37.5686ZM55.4333 4.57422C56.7731 4.57422 57.8622 5.65697 57.8726 6.99456V37.5686H36.6823L28.4246 23.2684L39.218 4.57422H55.4333Z" fill="url(#paint0_radial_32292_15650)"/>
</g>
<defs>
<radialGradient id="paint0_radial_32292_15650" cx="0" cy="0" r="1" gradientUnits="userSpaceOnUse" gradientTransform="translate(45.312 -5.44281) scale(63.316)">
<stop stop-color="#6BE1FB"/>
<stop offset="1" stop-color="#38BDFA"/>
</radialGradient>
<clipPath id="clip0_32292_15650">
<rect width="62.4463" height="62.4463" fill="white"/>
</clipPath>
</defs>
</svg>
