<svg width="63" height="61" viewBox="0 0 63 61" fill="none" xmlns="http://www.w3.org/2000/svg">
<path d="M11.0582 0H51.3881C57.5027 0 62.4463 4.94367 62.4463 11.0582V49.827C62.4463 55.9415 57.5027 60.8852 51.3881 60.8852H11.0582C4.94367 60.8852 0 55.9415 0 49.827V11.0582C0 4.94367 4.94367 0 11.0582 0Z" fill="#330000"/>
<path d="M30.2605 36.5305H20.5813L18.6039 42.645C18.5518 42.8792 18.3437 43.0353 18.1095 43.0093H13.2179C12.9316 43.0093 12.8536 42.8532 12.9316 42.541L21.3099 18.4211C21.3879 18.1609 21.466 17.8747 21.5701 17.5624C21.6741 17.016 21.7262 16.4436 21.7262 15.8712C21.7002 15.7411 21.8042 15.611 21.9343 15.585C21.9603 15.585 21.9864 15.585 22.0124 15.585H28.6733C28.8815 15.585 28.9856 15.663 29.0116 15.7931L38.5086 42.593C38.5867 42.8792 38.5086 43.0093 38.2484 43.0093H32.8104C32.6283 43.0353 32.4461 42.9052 32.3941 42.7231L30.2605 36.5305ZM22.0904 31.2486H28.6993C28.5432 30.7022 28.3351 30.0517 28.1009 29.3752C27.8667 28.6727 27.6326 27.9181 27.3984 27.1375C27.1382 26.3309 26.904 25.5504 26.6438 24.7438C26.3836 23.9372 26.1495 23.1826 25.9413 22.428C25.7331 21.6995 25.551 21.023 25.3689 20.3985H25.3168C25.0827 21.5174 24.7964 22.6362 24.4322 23.755C24.0419 25.004 23.6516 26.3049 23.2353 27.6059C22.871 28.9329 22.4807 30.1558 22.0904 31.2486Z" fill="#FF9A00"/>
<path d="M44.1809 20.0343C43.3222 20.0603 42.4896 19.722 41.8652 19.1236C41.2667 18.4731 40.9545 17.6145 40.9805 16.7298C40.9545 15.8452 41.2927 15.0125 41.9172 14.4141C42.5417 13.8156 43.3743 13.5034 44.2329 13.5034C45.2477 13.5034 46.0283 13.8156 46.6007 14.4141C47.1731 15.0386 47.4853 15.8712 47.4593 16.7298C47.4853 17.6145 47.1731 18.4731 46.5486 19.1236C45.9502 19.7481 45.0655 20.0863 44.1809 20.0343ZM41.2667 42.619V22.5842C41.2667 22.324 41.3708 22.2199 41.605 22.2199H46.7568C46.991 22.2199 47.095 22.35 47.095 22.5842V42.619C47.095 42.9052 46.991 43.0353 46.7568 43.0353H41.657C41.3968 43.0353 41.2667 42.8792 41.2667 42.619Z" fill="#FF9A00"/>
</svg>
