<svg width="63" height="63" viewBox="0 0 63 63" fill="none" xmlns="http://www.w3.org/2000/svg">
<g clip-path="url(#clip0_32292_15666)">
<path fill-rule="evenodd" clip-rule="evenodd" d="M31.2232 2.94607e-05H31.27C35.1027 -0.0051744 38.7636 0.679133 42.1435 1.96189C54.0031 6.39037 62.4463 17.8233 62.4463 31.2232C62.4463 48.4662 48.4662 62.4464 31.2232 62.4464C13.9802 62.4464 0 48.4662 0 31.2232C0 13.9802 13.9802 2.94607e-05 31.2232 2.94607e-05ZM53.6102 49.3509C57.7711 44.2266 60.0373 37.824 60.0266 31.2232C60.0266 26.7557 59.0118 22.5223 57.1931 18.7495C56.1979 19.9401 54.8225 20.7507 53.2989 21.0447C51.7753 21.3386 50.197 21.0977 48.8304 20.3627C47.5651 19.6598 46.3987 18.7919 45.3621 17.7816C42.3672 14.9091 39.3126 12.125 35.636 10.1476C27.2812 5.64882 17.8779 6.24206 10.4103 11.3106C5.27322 16.6659 2.40948 23.8024 2.4198 31.2232C2.4198 35.5502 3.3747 39.6561 5.08417 43.3404C7.03562 40.8087 10.6289 39.8382 13.4936 41.493C15.2291 42.4922 16.7642 43.8868 18.2734 45.258L18.7313 45.6743C22.2829 48.8851 26.0011 51.8019 30.5909 53.3891C38.5346 56.1289 47.1288 54.5261 53.6102 49.3509Z" fill="url(#paint0_linear_32292_15666)"/>
<path d="M14.6828 26.8322C12.5232 27.1184 11.0375 28.8253 11.0193 31.0421C11.0033 32.1175 11.3762 33.1625 12.0694 33.9848C12.7626 34.8071 13.7295 35.3514 14.7921 35.5175C16.8866 35.8505 19.0593 34.409 19.6577 32.239C19.7774 31.8045 19.8555 31.3596 19.9335 30.912C19.9986 30.5478 20.0636 30.1783 20.1521 29.8192C20.9795 26.3925 23.3707 24.7455 27.4063 24.7975C30.232 24.8313 30.8356 25.5026 31.7775 29.6241C31.8217 29.8218 31.8894 30.017 31.9596 30.2121C32.6361 32.0699 34.4991 33.2564 36.3049 32.9832C37.23 32.8375 38.0819 32.3929 38.7304 31.7172C39.3788 31.0414 39.7881 30.1719 39.8955 29.2416C40.1115 27.3448 38.9901 25.9528 36.9762 25.1436C36.0915 24.7897 35.2485 24.7324 34.3872 24.7767C32.4982 24.873 31.4705 23.84 30.9033 22.2346C30.7315 21.6837 30.6147 21.1172 30.5546 20.5433C30.5182 20.3014 30.4843 20.0594 30.4427 19.82C30.0368 17.5121 28.2701 15.8911 26.1001 15.8338C24.042 15.7818 22.2909 17.2675 21.7679 19.5234L21.6118 20.2259L21.5467 20.5303C20.623 24.7871 19.0124 26.2676 14.6828 26.8322Z" fill="url(#paint1_linear_32292_15666)"/>
<path d="M46.9881 35.5014C49.5614 34.9654 51.0914 33.3209 51.1304 31.0859C51.1694 28.9263 49.5068 26.9696 47.3316 26.6001C45.3281 26.2619 43.1711 27.5967 42.5336 29.6704C42.3541 30.2429 42.2292 30.8361 42.1043 31.4293C41.9482 32.1839 41.7869 32.9385 41.5189 33.6514C40.564 36.2169 37.374 37.674 33.9056 37.2785C31.7616 37.0313 31.0279 36.118 30.4138 32.9228C29.9455 30.4822 28.1658 28.9289 26.04 29.1058C23.8283 29.2879 22.098 31.2628 22.2203 33.4588C22.3504 35.7798 23.9844 37.2056 26.6566 37.3331C30.2343 37.4996 31.21 38.3635 31.6679 41.9828C31.8423 43.3644 32.3627 44.4988 33.4503 45.3341C36.1042 47.3714 39.7131 45.8753 40.3714 42.4511L40.4287 42.1545C40.8241 40.0834 41.2092 38.0513 43.1347 36.6878C44.0714 36.0243 45.1147 35.8396 46.1685 35.6549C46.4417 35.6054 46.7149 35.5586 46.9881 35.4988V35.5014Z" fill="url(#paint2_linear_32292_15666)"/>
<path d="M35.9846 20.714C35.9846 21.235 35.7776 21.7346 35.4092 22.1031C35.0408 22.4715 34.5411 22.6784 34.0201 22.6784C33.4991 22.6784 32.9994 22.4715 32.631 22.1031C32.2626 21.7346 32.0557 21.235 32.0557 20.714C32.0557 20.193 32.2626 19.6933 32.631 19.3249C32.9994 18.9565 33.4991 18.7495 34.0201 18.7495C34.5411 18.7495 35.0408 18.9565 35.4092 19.3249C35.7776 19.6933 35.9846 20.193 35.9846 20.714Z" fill="url(#paint3_linear_32292_15666)"/>
<path d="M28.1241 43.3949C28.6455 43.3949 29.1455 43.1878 29.5141 42.8191C29.8828 42.4505 30.0899 41.9505 30.0899 41.4291C30.0899 40.9078 29.8828 40.4078 29.5141 40.0391C29.1455 39.6705 28.6455 39.4634 28.1241 39.4634C27.6031 39.4634 27.1035 39.6703 26.735 40.0388C26.3666 40.4072 26.1597 40.9068 26.1597 41.4278C26.1597 41.9488 26.3666 42.4485 26.735 42.8169C27.1035 43.1853 27.6031 43.3949 28.1241 43.3949Z" fill="url(#paint4_linear_32292_15666)"/>
</g>
<defs>
<linearGradient id="paint0_linear_32292_15666" x1="31.2232" y1="2.94607e-05" x2="31.2232" y2="62.4464" gradientUnits="userSpaceOnUse">
<stop stop-color="#12B7FA"/>
<stop offset="1" stop-color="#006FFB"/>
</linearGradient>
<linearGradient id="paint1_linear_32292_15666" x1="31.075" y1="15.8338" x2="31.075" y2="46.2582" gradientUnits="userSpaceOnUse">
<stop stop-color="#006FFB"/>
<stop offset="1" stop-color="#12B7FA"/>
</linearGradient>
<linearGradient id="paint2_linear_32292_15666" x1="31.0747" y1="15.8334" x2="31.0747" y2="46.2577" gradientUnits="userSpaceOnUse">
<stop stop-color="#006FFB"/>
<stop offset="1" stop-color="#12B7FA"/>
</linearGradient>
<linearGradient id="paint3_linear_32292_15666" x1="31.0747" y1="15.8327" x2="31.0747" y2="46.2571" gradientUnits="userSpaceOnUse">
<stop stop-color="#006FFB"/>
<stop offset="1" stop-color="#12B7FA"/>
</linearGradient>
<linearGradient id="paint4_linear_32292_15666" x1="31.0747" y1="15.8326" x2="31.0747" y2="46.257" gradientUnits="userSpaceOnUse">
<stop stop-color="#006FFB"/>
<stop offset="1" stop-color="#12B7FA"/>
</linearGradient>
<clipPath id="clip0_32292_15666">
<rect width="62.4463" height="62.4463" fill="white"/>
</clipPath>
</defs>
</svg>
