<svg width="63" height="63" viewBox="0 0 63 63" fill="none" xmlns="http://www.w3.org/2000/svg">
<g clip-path="url(#clip0_32292_15673)">
<path d="M31.2232 62.4463C48.4662 62.4463 62.4463 48.4662 62.4463 31.2232C62.4463 13.9802 48.4662 0 31.2232 0C13.9802 0 0 13.9802 0 31.2232C0 48.4662 13.9802 62.4463 31.2232 62.4463Z" fill="#006FFB"/>
<path fill-rule="evenodd" clip-rule="evenodd" d="M29.2456 21.8376C29.4928 20.162 30.0314 18.0128 30.8692 15.3848L31.2231 14.2998L31.5769 15.3848C32.4147 18.0128 32.9559 20.162 33.2005 21.8376C33.3853 23.0657 33.3853 24.6269 33.2005 26.5211C33.0132 28.4231 33.0132 29.9973 33.2005 31.241C33.4763 33.0623 34.3089 34.5741 35.6984 35.7788C37.0509 36.9839 38.8046 37.6408 40.616 37.6209C41.6005 37.636 42.5776 37.4499 43.4877 37.0741C44.3977 36.6983 45.2214 36.1406 45.9084 35.4353C47.3654 33.9808 48.0992 32.2245 48.1148 30.169C48.1226 28.3476 48.3099 26.3389 48.6768 24.1429C48.8563 23.0449 49.0411 22.1264 49.2232 21.3849L49.4704 20.3857L49.9075 21.312C51.1621 23.952 51.8364 26.8302 51.885 29.7527V30.169C51.8934 32.9304 51.341 35.6647 50.2614 38.2064C48.1652 43.1649 44.2189 47.1111 39.2604 49.2073C36.7186 50.286 33.9843 50.8375 31.2231 50.8283C28.4618 50.8375 25.7275 50.2861 23.1857 49.2073C18.2272 47.1111 14.2809 43.1649 12.1847 38.2064C11.1056 35.6637 10.5542 32.9285 10.5637 30.1664V29.7527C10.6115 26.8303 11.2849 23.9522 12.5386 21.312L12.9783 20.3857L13.2203 21.3875C13.4076 22.1264 13.5924 23.0449 13.7693 24.1429C14.1362 26.3389 14.3235 28.3476 14.3313 30.169C14.3469 32.2245 15.0859 33.9808 16.5378 35.4353C18.0026 36.8924 19.7668 37.6209 21.8327 37.6209C23.6931 37.6209 25.3323 37.0069 26.7477 35.7788C28.11 34.6248 28.9993 33.0093 29.2456 31.241C29.4355 29.9973 29.4355 28.4231 29.2456 26.5211C29.0609 24.6269 29.0609 23.0657 29.2456 21.8376ZM31.2231 47.0607C34.0774 47.0607 36.7522 46.3842 39.25 45.0364C40.9892 44.1063 42.5488 42.8737 43.8554 41.3963C44.0194 41.2142 43.8294 40.9332 43.5926 40.9982C42.6299 41.2584 41.6412 41.3885 40.616 41.3885C38.6212 41.3995 36.6608 40.869 34.9438 39.8534C33.5542 39.0513 32.3557 37.9566 31.4312 36.6452C31.4073 36.6124 31.376 36.5857 31.3398 36.5673C31.3036 36.5489 31.2636 36.5393 31.2231 36.5393C31.1825 36.5393 31.1425 36.5489 31.1063 36.5673C31.0701 36.5857 31.0388 36.6124 31.0149 36.6452C30.0902 37.9556 28.8916 39.0494 27.5023 39.8508C25.7856 40.8673 23.8251 41.3988 21.8301 41.3885C20.8075 41.3885 19.8162 41.2584 18.8561 40.9982C18.6193 40.9332 18.4268 41.2142 18.5907 41.3963C19.8974 42.8736 21.4569 44.1063 23.1961 45.0364C25.694 46.3842 28.3687 47.0607 31.2231 47.0607Z" fill="white"/>
</g>
<defs>
<clipPath id="clip0_32292_15673">
<rect width="62.4463" height="62.4463" fill="white"/>
</clipPath>
</defs>
</svg>
