<svg width="57" height="63" viewBox="0 0 57 63" fill="none" xmlns="http://www.w3.org/2000/svg">
<path d="M56.4094 54.6314C56.4326 58.9188 52.9749 62.4099 48.6901 62.433C48.3715 62.4356 48.0504 62.4176 47.7345 62.3791C43.7579 61.7908 40.8448 58.3306 40.9425 54.3129V8.11961C40.8474 4.09677 43.7682 0.636516 47.7473 0.0533848C52.0039 -0.444974 55.8597 2.60169 56.3581 6.8583C56.394 7.1717 56.412 7.4851 56.4094 7.80107V54.6314Z" fill="#F9AB00"/>
<path d="M7.73483 46.9756C12.0068 46.9756 15.4697 50.4385 15.4697 54.7105C15.4697 58.9825 12.0068 62.4453 7.73483 62.4453C3.46282 62.4453 0 58.9825 0 54.7105C0 50.4385 3.46282 46.9756 7.73483 46.9756ZM28.0853 23.5348C23.7928 23.7711 20.4635 27.3701 20.5637 31.6678V52.4422C20.5637 58.0808 23.0452 61.5026 26.6802 62.2321C30.8751 63.0824 34.9622 60.3722 35.8124 56.1773C35.9178 55.6635 35.9691 55.1421 35.9666 54.618V31.3082C35.9743 27.0207 32.5063 23.5399 28.2189 23.5322C28.1752 23.5322 28.129 23.5322 28.0853 23.5348Z" fill="#E37400"/>
</svg>
