<svg width="63" height="36" viewBox="0 0 63 36" fill="none" xmlns="http://www.w3.org/2000/svg">
<path d="M45.5937 26.2854C44.1599 26.2854 42.9936 25.1181 42.9936 23.6843C42.9936 22.2505 44.1599 21.0842 45.5937 21.0842C47.0278 21.0842 48.1941 22.2503 48.1941 23.6843C48.1941 25.1183 47.0278 26.2854 45.5937 26.2854ZM16.8526 26.2854C15.4188 26.2854 14.2525 25.1181 14.2525 23.6843C14.2525 22.2505 15.4186 21.0842 16.8526 21.0842C18.2864 21.0842 19.4527 22.2503 19.4527 23.6843C19.4527 25.1183 18.2867 26.2854 16.8526 26.2854ZM46.5263 10.6219L51.7232 1.6212C51.8663 1.3728 51.905 1.0778 51.8308 0.800926C51.7566 0.52405 51.5756 0.287914 51.3275 0.14433C51.0791 0.00134223 50.7841 -0.0372945 50.5072 0.036894C50.2304 0.111082 49.9942 0.292039 49.8506 0.540081L44.5888 9.65451C40.5646 7.81829 36.0455 6.79524 31.2232 6.79524C26.4009 6.79524 21.8817 7.81829 17.8578 9.65451L12.5957 0.540081C12.4521 0.292039 12.216 0.111082 11.9391 0.036894C11.6623 -0.0372945 11.3673 0.00134223 11.1189 0.14433C10.8706 0.28778 10.6895 0.523918 10.6153 0.80085C10.5411 1.07778 10.5799 1.37285 10.7231 1.6212L15.92 10.6219C6.9962 15.4754 0.892879 24.5096 0 35.183H62.4463C61.5528 24.5098 55.4494 15.4754 46.5263 10.6216" fill="#3DDB85"/>
</svg>
