<svg width="63" height="63" viewBox="0 0 63 63" fill="none" xmlns="http://www.w3.org/2000/svg">
<g clip-path="url(#clip0_32292_15801)">
<path d="M4.58772 0.312064H58.367C58.4347 0.310962 58.5014 0.327192 58.5608 0.359206C58.6205 0.39122 58.6708 0.43795 58.707 0.494938C58.7434 0.551927 58.7644 0.617273 58.7684 0.684739C58.7722 0.752206 58.7589 0.819544 58.7292 0.88033C54.0931 10.2426 47.1046 18.2402 38.4487 24.0898C24.4667 33.5236 10.387 34.4977 4.59188 34.5497C4.53897 34.5507 4.48638 34.5414 4.43718 34.522C4.38797 34.5025 4.34315 34.4733 4.30535 34.4363C4.26754 34.3993 4.23751 34.3551 4.21702 34.3061C4.19652 34.2574 4.18596 34.205 4.18597 34.152V0.709645C4.18597 0.657082 4.19639 0.605039 4.21663 0.556528C4.23687 0.508019 4.26653 0.464004 4.30389 0.427031C4.34125 0.390057 4.38557 0.36086 4.43429 0.341127C4.48301 0.321393 4.53516 0.311514 4.58772 0.312064Z" fill="#FF6250"/>
<path d="M16.1945 62.7578C22.8267 62.7578 28.2031 57.3814 28.2031 50.7493C28.2031 44.1172 22.8267 38.7407 16.1945 38.7407C9.56239 38.7407 4.18597 44.1172 4.18597 50.7493C4.18597 57.3814 9.56239 62.7578 16.1945 62.7578Z" fill="#FFDF90"/>
<path d="M40.7421 62.0472C37.345 60.7503 35.5381 57.012 36.6893 53.7023L45.7544 27.8325C46.9159 24.5228 50.6108 22.8929 54.0079 24.1897C57.405 25.4887 59.2117 29.2251 58.0607 32.5367L48.9954 58.4065C47.8339 61.7162 44.1393 63.3481 40.7421 62.0472Z" fill="#3366FF"/>
</g>
<defs>
<clipPath id="clip0_32292_15801">
<rect width="62.4463" height="62.4463" fill="white"/>
</clipPath>
</defs>
</svg>
