<svg width="63" height="63" viewBox="0 0 63 63" fill="none" xmlns="http://www.w3.org/2000/svg">
<g clip-path="url(#clip0_32292_15808)">
<path d="M28.5967 1.30465L1.30508 28.5738C-0.162159 30.0398 -0.162159 32.4077 1.30508 33.8738L28.5967 61.1429C30.0639 62.6089 32.4338 62.6089 33.901 61.1429L45.344 49.7093C46.658 48.3964 46.658 46.2677 45.344 44.9548C44.03 43.6418 41.8995 43.6418 40.5855 44.9548L31.9107 53.6225C31.5455 53.9874 30.9912 53.9874 30.626 53.6225L8.83172 31.8461C8.46653 31.4812 8.46653 30.9274 8.83172 30.5625L30.626 8.78615C30.9912 8.42125 31.5455 8.42125 31.9107 8.78615L40.5855 17.4538C41.8995 18.7668 44.03 18.7668 45.344 17.4538C46.658 16.1409 46.658 14.0122 45.344 12.6993L33.9023 1.26694C32.429 -0.167372 30.0583 -0.15576 28.5967 1.30465Z" fill="url(#paint0_linear_32292_15808)"/>
<path d="M28.5967 1.30465L1.30508 28.5738C-0.162159 30.0398 -0.162159 32.4077 1.30508 33.8738L28.5967 61.1429C30.0639 62.6089 32.4338 62.6089 33.901 61.1429L45.344 49.7093C46.658 48.3964 46.658 46.2677 45.344 44.9548C44.03 43.6418 41.8995 43.6418 40.5855 44.9548L31.9107 53.6225C31.5455 53.9874 30.9912 53.9874 30.626 53.6225L8.83172 31.8461C8.46653 31.4812 8.46653 30.9274 8.83172 30.5625L30.626 8.78615C31.5353 8.00222 33.019 6.41441 35.1977 6.04305C36.817 5.76707 38.5872 6.37451 40.5085 7.86539C39.224 6.58196 37.0219 4.38247 33.9023 1.26694C32.429 -0.167372 30.0583 -0.15576 28.5967 1.30465Z" fill="url(#paint1_linear_32292_15808)"/>
<path d="M47.9856 42.4185C49.2996 43.7314 51.4301 43.7314 52.7441 42.4185L61.185 33.9845C62.6522 32.5185 62.6522 30.1506 61.1852 28.6847L52.6707 20.2074C51.3536 18.896 49.2224 18.8979 47.9076 20.2116C46.5936 21.5246 46.5936 23.6533 47.9076 24.9662L53.6584 30.7122C54.0236 31.0771 54.0236 31.6309 53.6584 31.9958L47.9856 37.6639C46.6716 38.9768 46.6716 41.1055 47.9856 42.4185Z" fill="url(#paint2_linear_32292_15808)"/>
<path d="M31.3854 38.7224C35.455 38.7224 38.7541 35.426 38.7541 31.3597C38.7541 27.2935 35.455 23.9971 31.3854 23.9971C27.3158 23.9971 24.0167 27.2935 24.0167 31.3597C24.0167 35.426 27.3158 38.7224 31.3854 38.7224Z" fill="url(#paint3_linear_32292_15808)"/>
</g>
<defs>
<linearGradient id="paint0_linear_32292_15808" x1="2864.66" y1="0.200349" x2="5458.16" y2="1584.01" gradientUnits="userSpaceOnUse">
<stop stop-color="#4285EB"/>
<stop offset="1" stop-color="#2EC7FF"/>
</linearGradient>
<linearGradient id="paint1_linear_32292_15808" x1="3212.53" y1="0.20016" x2="1931.58" y2="6620.48" gradientUnits="userSpaceOnUse">
<stop stop-color="#29CDFF"/>
<stop offset="0.378601" stop-color="#148EFF"/>
<stop offset="1" stop-color="#0A60FF"/>
</linearGradient>
<linearGradient id="paint2_linear_32292_15808" x1="1117.61" y1="-294.47" x2="-549.105" y2="2312.13" gradientUnits="userSpaceOnUse">
<stop stop-color="#FA816E"/>
<stop offset="0.414726" stop-color="#F74A5C"/>
<stop offset="1" stop-color="#F51D2C"/>
</linearGradient>
<linearGradient id="paint3_linear_32292_15808" x1="1028.05" y1="-501.559" x2="473.486" y2="1716.78" gradientUnits="userSpaceOnUse">
<stop stop-color="#FA8E7D"/>
<stop offset="0.512635" stop-color="#F74A5C"/>
<stop offset="1" stop-color="#F51D2C"/>
</linearGradient>
<clipPath id="clip0_32292_15808">
<rect width="62.4463" height="62.4463" fill="white"/>
</clipPath>
</defs>
</svg>
