<svg width="63" height="63" viewBox="0 0 63 63" fill="none" xmlns="http://www.w3.org/2000/svg">
<g clip-path="url(#clip0_32292_15813)">
<path d="M33.2968 16.3443C33.0909 16.2989 32.901 16.1988 32.7471 16.0545C32.5933 15.9103 32.4812 15.7273 32.4225 15.5247C32.3123 15.0937 32.3123 14.6418 32.4225 14.2107C32.8284 11.9731 33.2031 9.72241 33.7261 7.50556C34.0904 5.68421 34.8189 3.94872 35.8675 2.40578C36.6611 1.28434 37.8189 0.464736 39.1511 0.0900577C41.433 -0.474561 42.3775 1.72667 41.5891 3.59746C40.9152 5.14041 39.3072 5.97563 38.1182 7.10486C35.9455 9.1734 35.2664 12.673 34.642 15.4623C34.6138 15.6087 34.5565 15.748 34.4733 15.8719C34.3902 15.9957 34.2829 16.1015 34.158 16.183C34.0323 16.2655 33.8914 16.3223 33.7436 16.35C33.5957 16.3776 33.4439 16.3757 33.2968 16.3443Z" fill="url(#paint0_linear_32292_15813)"/>
<path d="M24.2865 12.1538C25.1451 11.839 26.061 12.5337 26.7479 12.9266C27.4713 13.3038 28.2753 13.4964 29.0923 13.4834C29.6933 13.5094 30.3048 13.4834 30.8824 13.5302C41.5451 13.9881 50.3552 21.9084 51.8279 32.3604C53.298 42.8097 47.0092 52.809 36.8798 56.1264C26.7479 59.4465 15.6663 55.1377 10.5327 45.8878C8.04806 41.4062 7.22975 36.1899 8.22269 31.1628C9.21564 26.1357 11.9558 21.6222 15.9577 18.4218C16.8632 17.6985 17.8207 17.0428 18.825 16.4574C20.0285 15.8784 21.1764 15.1903 22.2544 14.4019C22.9829 13.7696 23.4253 12.4712 24.2865 12.1538ZM35.7506 17.7479C28.3585 17.7557 23.0063 24.3386 23.7089 32.428C24.4114 40.5174 30.9448 47.1055 38.3135 47.168C45.6822 47.2304 51.1462 40.6319 50.4333 32.4827C49.723 24.3308 43.1427 17.7401 35.7506 17.7479ZM36.6795 19.231C38.2894 19.2622 39.8774 19.6106 41.3525 20.2562C42.8277 20.9018 44.161 21.832 45.2763 22.9934C47.7128 25.4319 49.2243 28.6426 49.5513 32.0742C49.7473 33.7989 49.5848 35.5455 49.074 37.2044C48.5631 38.8633 47.7148 40.3988 46.5824 41.7143V41.7534C45.6582 42.7845 44.5339 43.6168 43.2779 44.1996C42.0218 44.7825 40.6603 45.1037 39.2762 45.1437C37.6486 45.1604 36.0342 44.8495 34.5291 44.2296C33.0241 43.6096 31.6591 42.6931 30.5155 41.5348C27.9951 39.1069 26.4183 35.8631 26.0662 32.3812C25.8505 30.6366 26.003 28.8662 26.5139 27.1842C27.0248 25.5022 27.8828 23.946 29.0324 22.6161C29.9588 21.5849 31.0855 20.7531 32.3439 20.1716C33.6023 19.59 34.9659 19.2709 36.3516 19.2336L36.6795 19.231Z" fill="url(#paint1_linear_32292_15813)"/>
<path d="M13.91 5.34265C14.0886 4.74263 14.4353 4.20632 14.9091 3.7971C15.3529 3.44252 15.9171 3.27418 16.4826 3.32758C17.0481 3.38098 17.5708 3.65194 17.9404 4.08331C19.7461 6.21689 18.3801 9.49012 18.3098 11.9411C18.3437 14.0357 18.851 16.0964 19.7929 17.9724C20.0115 18.3211 20.1754 18.6984 20.2769 19.0912C20.328 19.3924 20.2794 19.7019 20.1385 19.9729C19.9977 20.2439 19.7722 20.4614 19.4963 20.5926C18.5987 21.0349 18.0184 20.0982 17.6516 19.4321C16.8085 17.8709 16.0462 16.2682 15.3697 14.6289C14.6287 12.9761 14.0888 11.2404 13.7617 9.4589C13.7095 9.13914 13.6652 8.81814 13.629 8.49619C13.5946 8.20241 13.5738 7.90722 13.5665 7.61153C13.546 6.84088 13.6623 6.07269 13.91 5.34265Z" fill="url(#paint2_linear_32292_15813)"/>
</g>
<defs>
<linearGradient id="paint0_linear_32292_15813" x1="331.11" y1="1564.11" x2="1049.84" y2="227.137" gradientUnits="userSpaceOnUse">
<stop stop-color="#0066FF"/>
<stop offset="0.2" stop-color="#1677FF"/>
<stop offset="1" stop-color="#04A6FF"/>
</linearGradient>
<linearGradient id="paint1_linear_32292_15813" x1="200.915" y1="2992.17" x2="4200.73" y2="1553.08" gradientUnits="userSpaceOnUse">
<stop stop-color="#0066FF"/>
<stop offset="0.2" stop-color="#1677FF"/>
<stop offset="1" stop-color="#04A6FF"/>
</linearGradient>
<linearGradient id="paint2_linear_32292_15813" x1="392.3" y1="1729.31" x2="-42.0965" y2="126.37" gradientUnits="userSpaceOnUse">
<stop stop-color="#0066FF"/>
<stop offset="0.2" stop-color="#1677FF"/>
<stop offset="1" stop-color="#04A6FF"/>
</linearGradient>
<clipPath id="clip0_32292_15813">
<rect width="62.4463" height="62.4463" fill="white"/>
</clipPath>
</defs>
</svg>
