<svg width="63" height="63" viewBox="0 0 63 63" fill="none" xmlns="http://www.w3.org/2000/svg">
<g clip-path="url(#clip0_32292_15822)">
<path d="M45.7497 32.1184L38.0037 45.5339H53.5997C54.1721 45.5339 54.7029 45.2295 54.9918 44.7325L62.2746 32.1184H45.7497ZM62.2746 30.3282L54.9918 17.7141C54.8507 17.4698 54.6478 17.2671 54.4034 17.1264C54.159 16.9857 53.8817 16.912 53.5997 16.9127H38.0037L45.7497 30.3282H62.2746ZM22.5144 16.9127H38.0037L30.2058 3.40605C30.0651 3.16133 29.8623 2.9581 29.6178 2.81692C29.3734 2.67574 29.096 2.60162 28.8137 2.60205H14.2481L22.5144 16.9127ZM12.7 3.49452L5.41976 16.1087C5.27911 16.3528 5.20508 16.6296 5.20508 16.9114C5.20508 17.1931 5.27911 17.4699 5.41976 17.7141L13.2177 31.2207L20.9611 17.8051L12.7 3.49452ZM20.9637 44.6362L13.2203 31.2233L5.41976 44.7325C5.27911 44.9767 5.20508 45.2535 5.20508 45.5352C5.20508 45.817 5.27911 46.0938 5.41976 46.3379L12.7 58.9521L20.9611 44.6414H20.9637V44.6362ZM14.2481 59.8445H28.8137C29.3862 59.8445 29.9169 59.5401 30.2058 59.0431L38.0037 45.5339H22.5144L14.2507 59.8445H14.2481Z" fill="#0163FB"/>
</g>
<defs>
<clipPath id="clip0_32292_15822">
<rect width="62.4463" height="62.4463" fill="white"/>
</clipPath>
</defs>
</svg>
