<svg width="256" height="256" viewBox="0 0 256 256" xmlns="http://www.w3.org/2000/svg">
  <path fill="#38BDF8" d="M128 64c-36.8 0-59.733 19.2-68 57.6 13.6-19.2 29.867-26.133 48.8-20.8 10.6 2.933 18.267 10.133 25.6 17.867C145.067 133.867 158.4 147.2 188 147.2c36.8 0 59.733-19.2 68-57.6-13.6 19.2-29.867 26.133-48.8 20.8-10.6-2.933-18.267-10.133-25.6-17.867C170.933 77.333 157.6 64 128 64z"></path>
  <path fill="#38BDF8" d="M60 147.2c-36.8 0-59.733 19.2-68 57.6 13.6-19.2 29.867-26.133 48.8-20.8 10.6 2.933 18.267 10.133 25.6 17.867C77.067 217.067 90.4 230.4 120 230.4c36.8 0 59.733-19.2 68-57.6-13.6 19.2-29.867 26.133-48.8 20.8-10.6-2.933-18.267-10.133-25.6-17.867C92.933 160.533 79.6 147.2 60 147.2z"></path>
</svg>
