<svg xmlns="http://www.w3.org/2000/svg" xmlns:xlink="http://www.w3.org/1999/xlink" width="570" height="281.755" viewBox="0 0 570 281.755">
  <defs>
    <clipPath id="clip-path">
      <path id="SVGID" d="M495.551,371.576a28.216,28.216,0,0,1,2.388,2.3c.339.5,1.656,4.223,1.656,4.223a3.175,3.175,0,0,1-2.058,1.422l-1.658-2.134s-.849,3.731-1.7,4.942c-1.035,1.464-6.971,3.153-7.858,2.708,0,0-1.091-2.174.769-3.367,3.435-2.2,3.519-6.821,3.519-6.821A3.233,3.233,0,0,1,495.551,371.576Z" fill="#fd6141"/>
    </clipPath>
    <clipPath id="clip-path-2">
      <path id="SVGID-2" data-name="SVGID" d="M509.177,374.322a28.137,28.137,0,0,1,1.415,3c.138.588.046,4.535.046,4.535a3.165,3.165,0,0,1-2.428.6l-.792-2.584a10.776,10.776,0,0,1-2.452,3.351c-1.488,1-6.788,2.227-7.679,1.789,0,0-1.222-2.364.744-3.373,4.923-2.525,5.359-6.014,5.359-6.014A3.234,3.234,0,0,1,509.177,374.322Z" fill="#fd6141"/>
    </clipPath>
  </defs>
  <g id="Fashion_Website_section_1" transform="translate(-815 -948)">
    <g id="Group_285412" data-name="Group 285412" transform="translate(967 1164.77)">
      <rect id="Rectangle_160769" data-name="Rectangle 160769" width="38.418" height="5.131" transform="translate(0 0)" fill="#c9e4f9"/>
    </g>
    <g id="Group_285413" data-name="Group 285413" transform="translate(1074 1164.77)">
      <rect id="Rectangle_160769-2" data-name="Rectangle 160769" width="38.418" height="5.131" transform="translate(0 0)" fill="#c9e4f9"/>
    </g>
    <g id="Group_285414" data-name="Group 285414" transform="translate(1181 1164.77)">
      <rect id="Rectangle_160769-3" data-name="Rectangle 160769" width="38.418" height="5.131" transform="translate(0 0)" fill="#c9e4f9"/>
    </g>
    <g id="Group_285415" data-name="Group 285415">
      <g id="Group_285411" data-name="Group 285411" transform="translate(-3 2)">
        <g id="Group_283627" data-name="Group 283627" transform="translate(726.354 882.34)">
          <g id="Group_283528" data-name="Group 283528" transform="translate(-1 7)">
            <path id="Path_122798" data-name="Path 122798" d="M368.968,249.706c-59.888-.942-220.052,48.636-239.591,0-16.1-40.08,44.106-37.007,47.606-70.193s-12.175-47.32,12.815-62.684,65.715,5.967,92.609-15.364,40.931-36.873,101.472-44.248,105.347,60.841,131.251,67.6,63.008-10.447,81.211,10.447-40.606,67.135-28,86.419,43.459,29.731,31.531,56.772S427.261,250.623,368.968,249.706Z" fill="#d3e7f6"/>
            <g id="Group_283527" data-name="Group 283527">
              <g id="Group_283519" data-name="Group 283519">
                <g id="Group_283513" data-name="Group 283513">
                  <path id="Path_122799" data-name="Path 122799" d="M129.951,231.147a2.033,2.033,0,0,1,.153-.76,2.575,2.575,0,0,1,.383-.672.383.383,0,0,1,.636-.021.577.577,0,0,1,.082.32,2.4,2.4,0,0,1-.169.725,3.365,3.365,0,0,1-.348.656c-.189.237-.475.274-.634.071A.538.538,0,0,1,129.951,231.147Z" fill="#fff"/>
                </g>
                <g id="Group_283514" data-name="Group 283514">
                  <path id="Path_122800" data-name="Path 122800" d="M131.052,228.463a2.312,2.312,0,0,1,.255-.73,2.173,2.173,0,0,1,.462-.619c.243-.2.527-.17.639.062a.528.528,0,0,1,.035.324,2.89,2.89,0,0,1-.255.7,2.778,2.778,0,0,1-.438.6.388.388,0,0,1-.634-.011A.551.551,0,0,1,131.052,228.463Z" fill="#fff"/>
                </g>
                <g id="Group_283515" data-name="Group 283515">
                  <path id="Path_122801" data-name="Path 122801" d="M132.483,225.944a2.574,2.574,0,0,1,.33-.7,2.372,2.372,0,0,1,.535-.557c.26-.177.537-.115.624.129a.546.546,0,0,1,0,.33,2.566,2.566,0,0,1-.341.663,2.415,2.415,0,0,1-.5.555c-.246.181-.534.145-.636-.09A.532.532,0,0,1,132.483,225.944Z" fill="#fff"/>
                </g>
                <g id="Group_283516" data-name="Group 283516">
                  <path id="Path_122802" data-name="Path 122802" d="M135.655,221.915a2.4,2.4,0,0,1,.452-.623,2.194,2.194,0,0,1,.619-.456c.287-.128.55-.02.594.236a.543.543,0,0,1-.055.324,2.892,2.892,0,0,1-.45.6,2.633,2.633,0,0,1-.594.454c-.271.139-.544.053-.6-.2A.545.545,0,0,1,135.655,221.915Z" fill="#fff"/>
                </g>
                <g id="Group_283517" data-name="Group 283517">
                  <path id="Path_122803" data-name="Path 122803" d="M138.3,219.411a.923.923,0,0,1,.283-.378.979.979,0,0,1,.426-.2.418.418,0,0,1,.513.5.782.782,0,0,1-.029.113.939.939,0,0,1-.278.367,1.022,1.022,0,0,1-.414.2.42.42,0,0,1-.53-.476A.713.713,0,0,1,138.3,219.411Z" fill="#fff"/>
                </g>
                <g id="Group_283518" data-name="Group 283518">
                  <path id="Path_122804" data-name="Path 122804" d="M140.77,217.557a.945.945,0,0,1,.323-.348.959.959,0,0,1,.45-.158.417.417,0,0,1,.451.553.62.62,0,0,1-.042.108.969.969,0,0,1-.313.331,1,1,0,0,1-.431.156.42.42,0,0,1-.478-.528A.67.67,0,0,1,140.77,217.557Z" fill="#fff"/>
                </g>
              </g>
              <g id="Group_283526" data-name="Group 283526">
                <g id="Group_283520" data-name="Group 283520">
                  <path id="Path_122805" data-name="Path 122805" d="M136.466,256.5c-.73-.774-1.337-1.652-2.009-2.478-.574-.894-1.165-1.782-1.7-2.7-.472-.952-.977-1.89-1.421-2.855l-1.173-2.964a24.607,24.607,0,0,1-1.261-6.273,19.557,19.557,0,0,1,.643-6.36c.08-.285.311-.464.516-.4a.477.477,0,0,1,.239.586,20.2,20.2,0,0,0-.454,6.112,23.556,23.556,0,0,0,1.261,6.011l1.119,2.9c.424.942.908,1.857,1.359,2.788.509.9,1.064,1.769,1.6,2.654.63.816,1.191,1.692,1.871,2.47a.455.455,0,0,1,.046.638A.485.485,0,0,1,136.466,256.5Z" fill="#fff"/>
                </g>
                <g id="Group_283521" data-name="Group 283521">
                  <path id="Path_122806" data-name="Path 122806" d="M137.962,257.112a2.057,2.057,0,0,1,.506.376,1.742,1.742,0,0,1,.385.5c.125.284.013.555-.26.6a.577.577,0,0,1-.273-.031,1.886,1.886,0,0,1-.553-.355,1.626,1.626,0,0,1-.363-.546c-.11-.305.025-.564.295-.588A.544.544,0,0,1,137.962,257.112Z" fill="#fff"/>
                </g>
                <g id="Group_283522" data-name="Group 283522">
                  <path id="Path_122807" data-name="Path 122807" d="M139.684,258.743a2.356,2.356,0,0,1,.54.325,1.714,1.714,0,0,1,.427.464.393.393,0,0,1-.205.619.567.567,0,0,1-.274-.007,1.855,1.855,0,0,1-.581-.306,1.47,1.47,0,0,1-.415-.507c-.138-.294-.026-.565.241-.612A.535.535,0,0,1,139.684,258.743Z" fill="#fff"/>
                </g>
                <g id="Group_283523" data-name="Group 283523">
                  <path id="Path_122808" data-name="Path 122808" d="M141.543,260.213l2.185,1.269,2.2,1.234a.444.444,0,0,1,.232.594.473.473,0,0,1-.546.117,13.53,13.53,0,0,1-2.384-1.08,15.474,15.474,0,0,1-2.142-1.5c-.217-.205-.261-.488-.1-.635A.469.469,0,0,1,141.543,260.213Z" fill="#fff"/>
                </g>
                <g id="Group_283524" data-name="Group 283524">
                  <path id="Path_122809" data-name="Path 122809" d="M147.923,263.5a.714.714,0,0,1,.393.007.7.7,0,0,1,.325.217.449.449,0,0,1-.205.739l-.018.006a.748.748,0,0,1-.744-.233.447.447,0,0,1,.228-.729Z" fill="#fff"/>
                </g>
                <g id="Group_283525" data-name="Group 283525">
                  <path id="Path_122810" data-name="Path 122810" d="M150.363,264.146a.71.71,0,0,1,.385-.035.674.674,0,0,1,.346.166.45.45,0,0,1-.092.762l-.017.008a.756.756,0,0,1-.41.046.731.731,0,0,1-.366-.185.448.448,0,0,1,.134-.753Z" fill="#fff"/>
                </g>
              </g>
            </g>
            <path id="Path_122811" data-name="Path 122811" d="M371.059,88.268q-42.081,6.842-65.46,38.308c-14.546,19.153-11.429,43.779,1.039,62.933,11.43,18.242,33.25,24.626,54.03,29.187,58.187,13.681,111.178,31.01,166.247,48.34,23.9,7.3,51.952,18.241,72.733,1.824l.032-.025a6.5,6.5,0,0,0,2.423-6.44c-3.308-16.143-24.008-25.778-33.766-40.711-12.6-19.284,46.206-65.524,28-86.419s-55.308-3.687-81.211-10.447a36.421,36.421,0,0,1-10.008-4.775C458.776,109.759,422.165,80.352,371.059,88.268Z" fill="#a7d3f6"/>
            <path id="Path_122812" data-name="Path 122812" d="M577.355,281.378c-24.48,0-66.518-9.394-107.171-18.479-40.01-8.941-77.8-17.386-101.123-17.752-.593-.01-1.207-.015-1.818-.015-19.178,0-47.42,4.594-77.32,9.457-34.48,5.608-73.559,11.964-103.886,11.965-29.865,0-46.8-6.007-51.761-18.365-7.67-19.09,3.645-25.9,19.306-35.336,12.564-7.566,26.8-16.142,28.574-32.92,1.251-11.854.134-21.464-.763-29.185-1.673-14.408-2.513-21.639,11.385-30.184,5.988-3.681,13.434-5.252,24.9-5.252,4.37,0,8.827.215,13.545.443,4.775.231,9.714.469,14.621.469,11.967,0,27.334-1.293,40.047-11.375,2.474-1.962,4.839-3.875,7.142-5.738,22.16-17.923,38.17-30.873,91.562-37.377a70.274,70.274,0,0,1,8.452-.513c33.912,0,62.734,24.556,85.893,44.286,13.825,11.778,24.744,21.081,34.71,23.682a66.715,66.715,0,0,0,16.874,1.873c6.081,0,12.36-.521,18.433-1.025,6.046-.5,11.757-.975,17.247-.975,12.752,0,20.532,2.683,26.011,8.973,7.528,8.642-4,26.187-14.179,41.666-11.121,16.918-21.625,32.9-14.2,44.252,4.289,6.564,10.339,12.008,16.19,17.273,12.277,11.05,21.976,19.777,15,35.582C593.724,279.755,587.448,281.378,577.355,281.378Z" fill="none" stroke="#fff" stroke-miterlimit="10" stroke-width="0.973"/>
          </g>
          <g id="Group_283546" data-name="Group 283546">
            <rect id="Rectangle_160733" data-name="Rectangle 160733" width="320.478" height="176.965" rx="3.855" transform="translate(222.354 153.881)" fill="#a7d3f6"/>
            <rect id="Rectangle_160734" data-name="Rectangle 160734" width="320.478" height="176.965" rx="3.855" transform="translate(216.75 147.202)" fill="#c9e4f9"/>
            <g id="Group_283533" data-name="Group 283533">
              <path id="Path_123325" data-name="Path 123325" d="M2.124,0H318.354a2.124,2.124,0,0,1,2.124,2.124V174.841a2.124,2.124,0,0,1-2.124,2.124H2.124A2.124,2.124,0,0,1,0,174.841V2.124A2.124,2.124,0,0,1,2.124,0Z" transform="translate(211.145 140.523)" fill="#fff" stroke="#60a6df" stroke-width="0.974"/>
              <path id="Path_122813" data-name="Path 122813" d="M229.009,155.689h20.5v-1.205h-20.5Zm-4.823.6H226.6v-2.411h-2.411Zm4.823,6.028h20.5v-1.205h-20.5Zm-4.823.6H226.6v-2.411h-2.411Zm4.823,6.029h20.5v-1.206h-20.5Zm-4.823.6H226.6v-2.412h-2.411Z" fill="#60a6df" fill-rule="evenodd"/>
              <rect id="Rectangle_160736" data-name="Rectangle 160736" width="91.019" height="88.235" rx="15.112" transform="translate(224.186 180.224)" fill="#fff" stroke="#60a6df" stroke-miterlimit="10" stroke-width="1.024"/>
              <rect id="Rectangle_160737" data-name="Rectangle 160737" width="91.019" height="88.235" rx="15.112" transform="translate(326.425 180.224)" fill="#fff" stroke="#60a6df" stroke-miterlimit="10" stroke-width="1.024"/>
              <rect id="Rectangle_160738" data-name="Rectangle 160738" width="91.019" height="88.235" rx="15.112" transform="translate(428.663 180.224)" fill="#fff" stroke="#60a6df" stroke-miterlimit="10" stroke-width="1.024"/>
              <g id="Group_283532" data-name="Group 283532">
                <g id="Group_283531" data-name="Group 283531">
                  <g id="Group_283529" data-name="Group 283529">
                    <path id="Path_122814" data-name="Path 122814" d="M497.409,162.9l-1.53-10.192a.568.568,0,0,0-.562-.487l-2.741-.017.008-1.265,2.741.017a1.829,1.829,0,0,1,1.8,1.565l.17,1.133,17.288.109-1.775,8.039Zm.082-7.98.995,6.636,13.3-.949,1.234-5.589Z" fill="#4e95cf"/>
                  </g>
                  <g id="Group_283530" data-name="Group 283530">
                    <path id="Path_122815" data-name="Path 122815" d="M513.046,165.3l-14.94-.087a1.1,1.1,0,0,1-1.076-1.272l.293-1.813,1.249.2-.262,1.619,14.744.086Z" fill="#4e95cf"/>
                  </g>
                  <path id="Path_122816" data-name="Path 122816" d="M501.919,167.8a1.706,1.706,0,1,1-1.7-1.716A1.705,1.705,0,0,1,501.919,167.8Z" fill="none" stroke="#60a6df" stroke-miterlimit="10" stroke-width="1.265"/>
                  <path id="Path_122817" data-name="Path 122817" d="M510.869,167.86a1.706,1.706,0,1,1-1.694-1.717A1.705,1.705,0,0,1,510.869,167.86Z" fill="none" stroke="#60a6df" stroke-miterlimit="10" stroke-width="1.265"/>
                </g>
              </g>
            </g>
            <g id="Group_283536" data-name="Group 283536">
              <path id="Path_122818" data-name="Path 122818" d="M407.3,236.206c0,1.248-14.936,2.26-33.359,2.26s-33.359-1.012-33.359-2.26,14.935-2.261,33.359-2.261S407.3,234.957,407.3,236.206Z" fill="#008dd1"/>
              <g id="Group_283535" data-name="Group 283535">
                <g id="Group_283534" data-name="Group 283534">
                  <path id="Path_122819" data-name="Path 122819" d="M347.388,212.628s.667-1.688,6.508.529c3.168,1.2,7.3,4.106,15.331.6,0,0,2.448,8.124-7.791,7.414A17.041,17.041,0,0,1,347.388,212.628Z" fill="#14638a"/>
                  <path id="Path_122820" data-name="Path 122820" d="M404.338,225.7l2.371.625c1.347.715,1.276,4.3.165,5.408,0,0-9.577,5.6-37.622,6.073-16.131-.31-26.912-3.068-27.411-4.164a14.454,14.454,0,0,1-.444-5.279l3.041-3.543Z" fill="#c9e4f9"/>
                  <path id="Path_122821" data-name="Path 122821" d="M347.388,212.628s-3.161,3.032-3.535,5.531c-.539,3.59-1.145,5.37-.758,9,0,0,9.1,3.546,24.249,3.723a156.289,156.289,0,0,0,26.061-1.765c6.681-1.191,13.3-2.787,13.3-2.787-1.929-6.754-7.766-4.246-16.084-6.88-5.658-1.791-19.13-12.91-19.13-12.91s-3.122,2.318-3.291,3.508c-.107.752,1.379,2.707,1.379,2.707s-.375,6.385-6.747,6.809C356.632,219.971,347.388,212.628,347.388,212.628Z" fill="#008dd1"/>
                  <path id="Path_122822" data-name="Path 122822" d="M406.709,226.325a36.521,36.521,0,0,1-12.373,4.831c-7.505,1.455-19.764,1.94-27.4,1.65-8.444-.322-25.536-4.443-25.536-4.443" fill="none"/>
                  <path id="Path_122823" data-name="Path 122823" d="M369.583,212.75a21.176,21.176,0,0,1,4.372.411c2.692.941,10.483,7.158,16.319,7.9" fill="none" stroke="#efe9da" stroke-linecap="round" stroke-miterlimit="10" stroke-width="1.157"/>
                  <path id="Path_122824" data-name="Path 122824" d="M379.226,212.513l-2.6,4.2c-.357.5-1.916-.625-1.559-1.121l2.411-4.436C378,210.488,379.746,211.841,379.226,212.513Z" fill="#e2e2e2"/>
                  <path id="Path_122825" data-name="Path 122825" d="M383.012,214.748l-2.735,4.458c-.333.748-2.083-.029-1.75-.778l2.735-5.033C381.782,212.722,383.532,214.076,383.012,214.748Z" fill="#e2e2e2"/>
                  <path id="Path_122826" data-name="Path 122826" d="M386.8,216.983l-2.769,4.48c-.3.632-2.011-.167-1.716-.8l2.735-5.033C385.569,214.958,387.319,216.311,386.8,216.983Z" fill="#e2e2e2"/>
                  <path id="Path_122827" data-name="Path 122827" d="M371.318,214.836a1,1,0,0,1,1.985.082l-.788,7.467c0,1.078-1.132,1.078-1.132,0Z" fill="#e2e2e2"/>
                  <path id="Path_122828" data-name="Path 122828" d="M364.415,230.941a8.221,8.221,0,0,1,4.106-4.837c3.582-1.688,12.091,1.5,16.8-1.111a49.663,49.663,0,0,0,4.954-3.936" fill="none" stroke="#efe9da" stroke-linecap="round" stroke-miterlimit="10" stroke-width="1.157"/>
                  <path id="Path_122829" data-name="Path 122829" d="M344.681,216.19s5.047,2.262,7.395,5.244c1.058,1.343,2.532,8.567,2.532,8.567" fill="none" stroke="#efe9da" stroke-linecap="round" stroke-miterlimit="10" stroke-width="1.157"/>
                </g>
              </g>
            </g>
            <g id="Group_283539" data-name="Group 283539">
              <path id="Path_122830" data-name="Path 122830" d="M302.484,236.206c0,1.248-14.936,2.26-33.359,2.26s-33.359-1.012-33.359-2.26,14.935-2.261,33.359-2.261S302.484,234.957,302.484,236.206Z" fill="#60a6df" opacity="0.7"/>
              <g id="Group_283538" data-name="Group 283538">
                <g id="Group_283537" data-name="Group 283537">
                  <path id="Path_122831" data-name="Path 122831" d="M242.57,212.628s.667-1.688,6.508.529c3.168,1.2,7.3,4.106,15.331.6,0,0,2.448,8.124-7.791,7.414A17.041,17.041,0,0,1,242.57,212.628Z" fill="#0271a6"/>
                  <path id="Path_122832" data-name="Path 122832" d="M299.52,225.7l2.371.625c1.347.715,1.276,4.3.165,5.408,0,0-9.577,5.6-37.622,6.073-16.131-.31-26.912-3.068-27.41-4.164a14.431,14.431,0,0,1-.445-5.279l3.041-3.543Z" fill="#c9e4f9"/>
                  <path id="Path_122833" data-name="Path 122833" d="M242.57,212.628s-3.161,3.032-3.535,5.531c-.539,3.59-1.145,5.37-.758,9,0,0,9.1,3.546,24.249,3.723a156.289,156.289,0,0,0,26.061-1.765c6.681-1.191,13.3-2.787,13.3-2.787-1.929-6.754-7.766-4.246-16.084-6.88-5.658-1.791-19.129-12.91-19.129-12.91s-3.123,2.318-3.292,3.508c-.107.752,1.379,2.707,1.379,2.707s-.375,6.385-6.746,6.809C251.814,219.971,242.57,212.628,242.57,212.628Z" fill="#60a6df"/>
                  <path id="Path_122834" data-name="Path 122834" d="M301.891,226.325a36.521,36.521,0,0,1-12.373,4.831c-7.5,1.455-19.764,1.94-27.4,1.65-8.444-.322-25.536-4.443-25.536-4.443" fill="none"/>
                  <path id="Path_122835" data-name="Path 122835" d="M264.765,212.75a21.176,21.176,0,0,1,4.372.411c2.692.941,10.483,7.158,16.319,7.9" fill="none" stroke="#efe9da" stroke-miterlimit="10" stroke-width="1.157"/>
                  <path id="Path_122836" data-name="Path 122836" d="M274.408,212.513l-2.6,4.2c-.357.5-1.916-.625-1.559-1.121l2.411-4.436C273.178,210.488,274.928,211.841,274.408,212.513Z" fill="#e2e2e2"/>
                  <path id="Path_122837" data-name="Path 122837" d="M278.194,214.748l-2.735,4.458c-.333.748-2.083-.029-1.75-.778l2.735-5.033C276.964,212.722,278.714,214.076,278.194,214.748Z" fill="#e2e2e2"/>
                  <path id="Path_122838" data-name="Path 122838" d="M281.981,216.983l-2.769,4.48c-.3.632-2.011-.167-1.716-.8l2.735-5.033C280.751,214.958,282.5,216.311,281.981,216.983Z" fill="#e2e2e2"/>
                  <path id="Path_122839" data-name="Path 122839" d="M266.5,214.836a1,1,0,0,1,1.984.082l-.788,7.467c0,1.078-1.131,1.078-1.132,0Z" fill="#e2e2e2"/>
                  <path id="Path_122840" data-name="Path 122840" d="M259.6,230.941A8.221,8.221,0,0,1,263.7,226.1c3.581-1.688,12.09,1.5,16.8-1.111a49.663,49.663,0,0,0,4.954-3.936" fill="none" stroke="#efe9da" stroke-miterlimit="10" stroke-width="1.157"/>
                  <path id="Path_122841" data-name="Path 122841" d="M239.863,216.19s5.047,2.262,7.395,5.244c1.058,1.343,2.532,8.567,2.532,8.567" fill="none" stroke="#efe9da" stroke-miterlimit="10" stroke-width="1.157"/>
                </g>
              </g>
            </g>
            <g id="Group_283542" data-name="Group 283542">
              <path id="Path_122842" data-name="Path 122842" d="M507.326,236.206c0,1.248-14.935,2.26-33.359,2.26s-33.359-1.012-33.359-2.26,14.935-2.261,33.359-2.261S507.326,234.957,507.326,236.206Z" fill="#60a6df"/>
              <g id="Group_283541" data-name="Group 283541">
                <g id="Group_283540" data-name="Group 283540">
                  <path id="Path_122843" data-name="Path 122843" d="M447.412,212.628s.668-1.688,6.508.529c3.168,1.2,7.3,4.106,15.331.6,0,0,2.448,8.124-7.791,7.414A17.041,17.041,0,0,1,447.412,212.628Z" fill="#284f63"/>
                  <path id="Path_122844" data-name="Path 122844" d="M504.363,225.7l2.37.625c1.347.715,1.276,4.3.165,5.408,0,0-9.577,5.6-37.621,6.073-16.132-.31-26.913-3.068-27.411-4.164a14.455,14.455,0,0,1-.444-5.279l3.041-3.543Z" fill="#c9e4f9"/>
                  <path id="Path_122845" data-name="Path 122845" d="M447.412,212.628s-3.16,3.032-3.535,5.531c-.538,3.59-1.145,5.37-.758,9,0,0,9.1,3.546,24.249,3.723a156.281,156.281,0,0,0,26.061-1.765c6.682-1.191,13.3-2.787,13.3-2.787-1.929-6.754-7.765-4.246-16.083-6.88-5.658-1.791-19.13-12.91-19.13-12.91s-3.123,2.318-3.292,3.508c-.107.752,1.379,2.707,1.379,2.707s-.374,6.385-6.746,6.809C456.656,219.971,447.412,212.628,447.412,212.628Z" fill="#1978a7"/>
                  <path id="Path_122846" data-name="Path 122846" d="M506.733,226.325a36.521,36.521,0,0,1-12.372,4.831c-7.505,1.455-19.764,1.94-27.4,1.65-8.444-.322-25.535-4.443-25.535-4.443" fill="none"/>
                  <path id="Path_122847" data-name="Path 122847" d="M469.607,212.75a21.171,21.171,0,0,1,4.372.411c2.692.941,10.483,7.158,16.32,7.9" fill="none" stroke="#efe9da" stroke-miterlimit="10" stroke-width="1.157"/>
                  <path id="Path_122848" data-name="Path 122848" d="M479.25,212.513l-2.6,4.2c-.357.5-1.915-.625-1.559-1.121l2.411-4.436C478.02,210.488,479.77,211.841,479.25,212.513Z" fill="#e2e2e2"/>
                  <path id="Path_122849" data-name="Path 122849" d="M483.037,214.748l-2.736,4.458c-.333.748-2.082-.029-1.749-.778l2.734-5.033C481.806,212.722,483.557,214.076,483.037,214.748Z" fill="#e2e2e2"/>
                  <path id="Path_122850" data-name="Path 122850" d="M486.823,216.983l-2.769,4.48c-.295.632-2.011-.167-1.716-.8l2.735-5.033C485.593,214.958,487.343,216.311,486.823,216.983Z" fill="#e2e2e2"/>
                  <path id="Path_122851" data-name="Path 122851" d="M471.343,214.836a1,1,0,0,1,1.984.082l-.787,7.467c0,1.078-1.132,1.078-1.132,0Z" fill="#e2e2e2"/>
                  <path id="Path_122852" data-name="Path 122852" d="M464.439,230.941a8.221,8.221,0,0,1,4.107-4.837c3.581-1.688,12.09,1.5,16.8-1.111a49.706,49.706,0,0,0,4.955-3.936" fill="none" stroke="#efe9da" stroke-miterlimit="10" stroke-width="1.157"/>
                  <path id="Path_122853" data-name="Path 122853" d="M444.7,216.19s5.048,2.262,7.4,5.244c1.057,1.343,2.531,8.567,2.531,8.567" fill="none" stroke="#efe9da" stroke-miterlimit="10" stroke-width="1.157"/>
                </g>
              </g>
            </g>
            <g id="Group_283543" data-name="Group 283543" transform="translate(58 1)">
              <path id="Path_122854" data-name="Path 122854" d="M336.275,196.463v.1c0,.518-.128.74-.426.74h-2.895c-.3,0-.425-.222-.425-.74v-.1c0-.518.127-.74.425-.74h2.895C336.147,195.723,336.275,195.945,336.275,196.463Z" fill="#4e95cf"/>
              <path id="Path_122855" data-name="Path 122855" d="M342.991,192.452c0,2.057-1.136,2.486-2.129,2.486s-2.129-.429-2.129-2.486,1.136-2.486,2.129-2.486S342.991,190.4,342.991,192.452Zm-2.81,0c0,.577.128,1.273.681,1.273s.667-.7.667-1.273-.114-1.214-.667-1.214S340.181,191.875,340.181,192.452Zm6.768-2.19a.609.609,0,0,1-.07.207l-5.066,9.59a.666.666,0,0,1-.625.414h-.624c-.2,0-.3-.089-.3-.192a.565.565,0,0,1,.071-.222l5.066-9.59a.665.665,0,0,1,.625-.414h.624C346.851,190.055,346.949,190.144,346.949,190.262Zm1.533,7.814c0,2.057-1.135,2.486-2.128,2.486s-2.129-.429-2.129-2.486,1.135-2.487,2.129-2.487S348.482,196.019,348.482,198.076Zm-2.809,0c0,.577.127,1.272.681,1.272s.667-.7.667-1.272-.114-1.214-.667-1.214S345.673,197.5,345.673,198.076Z" fill="#4e95cf"/>
            </g>
          </g>
          <g id="Group_283556" data-name="Group 283556">
            <g id="Group_283555" data-name="Group 283555">
              <g id="Group_283554" data-name="Group 283554">
                <g id="Group_283553" data-name="Group 283553">
                  <path id="Path_123324" data-name="Path 123324" d="M13.382,0h323.58a13.382,13.382,0,0,1,13.382,13.382v1.983a13.382,13.382,0,0,1-13.382,13.382H13.382A13.382,13.382,0,0,1,0,15.365V13.382A13.382,13.382,0,0,1,13.382,0Z" transform="translate(215.434 91.333)" fill="#fff" stroke="#60a6df" stroke-width="0.974"/>
                  <g id="Group_283552" data-name="Group 283552">
                    <path id="Path_122866" data-name="Path 122866" d="M299.995,100.413v.533c1.272.047,2.5.518,2.5,1,0,.361-.424,1.178-.723,1.178a5.479,5.479,0,0,0-1.774-.471v2.857c1.351.55,2.983,1.178,2.983,3.266a3.1,3.1,0,0,1-2.983,3.329v.722c0,.283-.125.393-.376.393-.3,0-.425-.11-.425-.393v-.706c-2.025-.063-3.265-.8-3.265-1.288,0-.408.549-1.209.816-1.209a6.431,6.431,0,0,0,2.449.785V107.29c-1.381-.519-3.046-1.115-3.046-3.282,0-1.868,1.367-2.858,3.046-3.046v-.549c0-.283.126-.393.393-.393C299.87,100.02,299.995,100.13,299.995,100.413Zm-1.852,3.485c0,.612.439.974,1.051,1.272v-2.434A1.162,1.162,0,0,0,298.143,103.9Zm1.852,6.391A1.326,1.326,0,0,0,301,108.97a1.472,1.472,0,0,0-1.005-1.319Z" fill="#c9e4f9"/>
                    <path id="Path_122867" data-name="Path 122867" d="M307.8,107.792v.125c0,.472-.126.66-.408.66h-3.125c-.282,0-.408-.188-.408-.66v-.125c0-.471.126-.675.408-.675h3.125C307.673,107.117,307.8,107.321,307.8,107.792Z" fill="#c9e4f9"/>
                    <path id="Path_122868" data-name="Path 122868" d="M313.7,103.521c0,2.151-1.24,2.606-2.292,2.606s-2.277-.455-2.277-2.606,1.209-2.606,2.277-2.606C312.463,100.915,313.7,101.37,313.7,103.521Zm-3.171,0c0,.66.125,1.476.879,1.476s.895-.816.895-1.476-.11-1.444-.895-1.444C310.657,102.077,310.532,102.862,310.532,103.521Zm7.521-2.355a.443.443,0,0,1-.079.189l-5.7,10.331a.686.686,0,0,1-.659.393h-.471c-.22,0-.346-.079-.346-.189a.488.488,0,0,1,.079-.2l5.684-10.331a.712.712,0,0,1,.675-.378h.471C317.927,100.977,318.053,101.056,318.053,101.166Zm1.648,8.353c0,2.167-1.24,2.607-2.292,2.607s-2.277-.44-2.277-2.607c0-2.151,1.209-2.606,2.277-2.606C318.461,106.913,319.7,107.368,319.7,109.519Zm-3.172,0c0,.66.126,1.476.88,1.476s.895-.816.895-1.476c0-.643-.11-1.444-.895-1.444C316.655,108.075,316.529,108.876,316.529,109.519Z" fill="#c9e4f9"/>
                  </g>
                  <path id="Path_122869" data-name="Path 122869" d="M285.854,113.225h-28.2a6.6,6.6,0,0,1-6.6-6.6h0a6.6,6.6,0,0,1,6.6-6.6h28.2a6.6,6.6,0,0,1,6.6,6.6h0A6.6,6.6,0,0,1,285.854,113.225Z" fill="#c9e4f9"/>
                  <circle id="Ellipse_4308" data-name="Ellipse 4308" cx="14.373" cy="14.373" r="14.373" transform="translate(148.423 91.333)" fill="#fff" stroke="#60a6df" stroke-miterlimit="10" stroke-width="0.974"/>
                  <path id="Path_123323" data-name="Path 123323" d="M14.374,0A14.374,14.374,0,1,1,0,14.374,14.374,14.374,0,0,1,14.374,0Z" transform="translate(181.928 91.333)" fill="#fff" stroke="#60a6df" stroke-width="0.974"/>
                </g>
              </g>
              <path id="Path_122870" data-name="Path 122870" d="M585.7,90.61l4.749,10.153,11.124,1.38-8.189,7.655,2.125,11.006-9.81-5.422-9.81,5.422L578.02,109.8l-8.189-7.655,11.124-1.38Z" fill="#60a6df" stroke="#a7d3f6" stroke-miterlimit="10" stroke-width="0.974"/>
            </g>
            <path id="Path_122871" data-name="Path 122871" d="M164.575,96.947l-9.1,9.009,9.1,9.183,1.733-1.733-7.364-7.45,7.364-7.277Z" fill="#60a6df"/>
            <path id="Path_122872" data-name="Path 122872" d="M195,115.139l9.1-9.009L195,96.947l-1.733,1.733,7.364,7.45-7.364,7.277Z" fill="#60a6df"/>
            <path id="Path_122873" data-name="Path 122873" d="M244.971,113.962l-5.8-5.728a7.383,7.383,0,0,0,1.242-4.112A7.6,7.6,0,0,0,227.5,98.795a7.4,7.4,0,0,0-2.194,5.279,7.6,7.6,0,0,0,7.579,7.5h.031a7.586,7.586,0,0,0,4.153-1.248l5.793,5.727Zm-6.81-9.841a5.184,5.184,0,0,1-1.535,3.689,5.324,5.324,0,0,1-3.719,1.523h-.023a5.334,5.334,0,0,1-5.321-5.258,5.176,5.176,0,0,1,1.534-3.689,5.333,5.333,0,0,1,9.064,3.735Z" fill="#60a6df"/>
            <path id="Path_122874" data-name="Path 122874" d="M546.311,106.043l-3.259,3.277a1,1,0,0,0,0,1.4.984.984,0,0,0,1.4,0l3.259-3.277,3.259,3.277a.984.984,0,0,0,1.4,0,1,1,0,0,0,0-1.4l-3.259-3.277,3.259-3.277a1,1,0,0,0,0-1.4.986.986,0,0,0-1.4,0l-3.259,3.278-3.259-3.278a.986.986,0,0,0-1.4,0,1,1,0,0,0,0,1.4Zm1.4,10.593a10.593,10.593,0,1,1,10.536-10.593A10.564,10.564,0,0,1,547.708,116.636Z" fill="#60a6df" fill-rule="evenodd"/>
          </g>
          <path id="Path_122877" data-name="Path 122877" d="M433.057,258.44" fill="#ffb072"/>
          <g id="Group_283622" data-name="Group 283622" transform="translate(109 -40)">
            <g id="Group_283621" data-name="Group 283621">
              <g id="Group_283620" data-name="Group 283620">
                <g id="Group_283607" data-name="Group 283607">
                  <g id="Group_283601" data-name="Group 283601">
                    <g id="Group_283600" data-name="Group 283600">
                      <g id="Group_283599" data-name="Group 283599">
                        <path id="SVGID-3" data-name="SVGID" d="M495.551,371.576a28.216,28.216,0,0,1,2.388,2.3c.339.5,1.656,4.223,1.656,4.223a3.175,3.175,0,0,1-2.058,1.422l-1.658-2.134s-.849,3.731-1.7,4.942c-1.035,1.464-6.971,3.153-7.858,2.708,0,0-1.091-2.174.769-3.367,3.435-2.2,3.519-6.821,3.519-6.821A3.233,3.233,0,0,1,495.551,371.576Z" fill="#0271a6"/>
                        <g id="Group_283598" data-name="Group 283598" clip-path="url(#clip-path)">
                          <path id="Path_122958" data-name="Path 122958" d="M485.617,384.707c.1-.055,7.6-1.063,8.48-3.273.693-1.729,1.153-4.645,1.554-4.986s2.288-2.574,2.288-2.574l3,5.219-11.277,9.489Z" fill="#284f63"/>
                        </g>
                      </g>
                      <path id="Path_122959" data-name="Path 122959" d="M489.211,379.726l1.023.217a3.472,3.472,0,0,0,.659-1.893l-1-.349a.352.352,0,0,0-.446.21l-.495,1.351A.352.352,0,0,0,489.211,379.726Z" fill="#f7b614"/>
                    </g>
                    <path id="Path_122960" data-name="Path 122960" d="M482.39,268.251c-.024-.358-9.507,41.867-9.167,53.22.212,7.073,13.434,39.623,17.381,53.376.757,2.639,4.861-.458,4.539-3.2-1.547-13.167-1.45-20.094-7.262-48.706-.9-4.456,15.086-44.4,13.821-53.754S487.385,254.74,482.39,268.251Z" fill="#fbcdb6"/>
                    <path id="Path_122961" data-name="Path 122961" d="M501.7,269.191c-1.265-9.358-14.317-14.451-19.312-.94-.023-.341-8.606,37.857-9.148,51.35,4.264-3.237,9.933-1.532,14.836,1.045C489.965,310.9,502.843,277.626,501.7,269.191Z" fill="#fbcdb6"/>
                  </g>
                  <g id="Group_283605" data-name="Group 283605">
                    <g id="Group_283604" data-name="Group 283604">
                      <g id="Group_283603" data-name="Group 283603">
                        <path id="SVGID-4" data-name="SVGID" d="M509.177,374.322a28.137,28.137,0,0,1,1.415,3c.138.588.046,4.535.046,4.535a3.165,3.165,0,0,1-2.428.6l-.792-2.584a10.776,10.776,0,0,1-2.452,3.351c-1.488,1-6.788,2.227-7.679,1.789,0,0-1.222-2.364.744-3.373,4.923-2.525,5.359-6.014,5.359-6.014A3.234,3.234,0,0,1,509.177,374.322Z" fill="#0271a6"/>
                        <g id="Group_283602" data-name="Group 283602" clip-path="url(#clip-path-2)">
                          <path id="Path_122962" data-name="Path 122962" d="M496.682,384.773c.118-.014,6.175-.591,7.631-1.753s2.729-3.933,3.226-4.109,3.053-1.592,3.053-1.592l.946,5.943-13.914,4.861Z" fill="#284f63"/>
                        </g>
                      </g>
                      <path id="Path_122963" data-name="Path 122963" d="M500.6,380.048l.879.568a3.476,3.476,0,0,0,1.289-1.535l-.809-.682a.35.35,0,0,0-.491.038l-.943,1.086A.351.351,0,0,0,500.6,380.048Z" fill="#f7b614"/>
                    </g>
                    <path id="Path_122964" data-name="Path 122964" d="M491.753,270.974c-.074,3.675.491,42.878,3.886,53.609,2.116,6.686,6.557,38.782,8.061,49.748.549,4,4.89,4,5.2.179,1.172-14.2,5.763-33.953.551-51.307-1.3-4.335,4.734-49.091.994-57.616S492.028,257.383,491.753,270.974Z" fill="#fbcdb6"/>
                    <path id="Path_122965" data-name="Path 122965" d="M509.272,320.3c.12-11.072,4.5-47.149,1.178-54.712-3.74-8.524-18.422-8.2-18.7,5.387-.068,3.383.407,36.856,3.132,50.528C499.125,319.107,504.484,318.907,509.272,320.3Z" fill="#fbcdb6"/>
                  </g>
                  <g id="Group_283606" data-name="Group 283606">
                    <path id="Path_122966" data-name="Path 122966" d="M482.811,263.656l-.421,3.853s-6.9,17.48-9.867,45.854c7.355-2.041,21.244,4.755,41.843,1.863,0,0,8.149-36.335-6.026-52.5S483.557,255.1,482.811,263.656Z" fill="#284f63"/>
                    <path id="Path_122967" data-name="Path 122967" d="M482.836,267.363s-.549,5.44,8.865,6.4,18.752-5.84,18.516-7.84S482.836,267.363,482.836,267.363Z" fill="#284f63"/>
                    <path id="Path_122968" data-name="Path 122968" d="M506.074,264.667s10.78,17.935,4.148,49.939" fill="none" stroke="#fff" stroke-linecap="round" stroke-miterlimit="10" stroke-width="0.499"/>
                  </g>
                </g>
                <g id="Group_283619" data-name="Group 283619">
                  <g id="Group_283608" data-name="Group 283608">
                    <path id="Path_122969" data-name="Path 122969" d="M444.493,253.4a35.78,35.78,0,0,0-4.654-.055,23.331,23.331,0,0,0-2.689,1.179c-1.079.542-.027,1.316.79,1.245a13.947,13.947,0,0,1,2.066-.236,3.816,3.816,0,0,1,.7.179,16.528,16.528,0,0,1-3.566,2.136c-.767.3-1.46.5-2.57.854-.495.159-.414.812.151.917a6.8,6.8,0,0,0,2.971-.376c.477-.181.959-.38,1.4-.585a10.4,10.4,0,0,1-1.524.875c-.727.331-1.46.466-2.523.857-.487.18-.355.748.213.829a5.689,5.689,0,0,0,.807.042c-.2.259-.058.664.393.723a5.472,5.472,0,0,0,1.2-.1.472.472,0,0,0,.428.275c3.974.012,6.346-2.157,8.522-2.663C450.082,255.993,447.084,253.892,444.493,253.4Z" fill="#fbcdb6"/>
                    <path id="Path_122970" data-name="Path 122970" d="M490.721,225.077c-2.7-1.533-7.311-2.037-10.944,3.139s-5.235,17.353-9.087,21.473c-2.3,2.456-23.154,3.166-24.638,3.911-.966.485-.389,5.126-.073,5.987.663,1.8,23.242,2.767,29.385.346S496.52,228.367,490.721,225.077Z" fill="#fec35b"/>
                  </g>
                  <path id="Path_122971" data-name="Path 122971" d="M481.99,202.025c.166-1.888.156-5.028,2.407-7.752s11.026-5.454,15.624-2.269c5.653,3.914,3.807,7.579,10.855,10.422s4.916,6,2.9,9.217-1.306,3.754,1.953,7.13,7.58,11.786,0,16.583-24,1.659-30.571-4.679,1.185-10.51-.641-14.287-3.968-2.944-3.968-6.958C480.551,206.357,481.734,204.937,481.99,202.025Z" fill="#3e2344"/>
                  <path id="Path_122972" data-name="Path 122972" d="M496.211,220.584s-14.951,2.493-15.451,7.056c-.209,1.912,2.4,5.768,1.724,7.727-.983,2.863-2.549,4.525.34,11.322,2.336,5.5-1.674,16.867-1.552,18.221.455,5.061,8.48,5.987,11.772,5.908,4.693-.112,18.189-3.132,18.189-6.089,0-2.563-6.25-8.071-6.856-12.464s10.829-22,8.559-25.837C508.543,219.005,496.211,220.584,496.211,220.584Z" fill="#fec35b"/>
                  <g id="Group_283609" data-name="Group 283609">
                    <path id="Path_122973" data-name="Path 122973" d="M510.556,267.728a35.866,35.866,0,0,0-4.448,1.371,23.684,23.684,0,0,0-2.2,1.944c-.861.846.377,1.262,1.133.944a14,14,0,0,1,1.9-.856,3.8,3.8,0,0,1,.723-.044,16.487,16.487,0,0,1-2.742,3.124c-.64.515-1.238.921-2.185,1.6-.423.3-.146.9.423.827a6.808,6.808,0,0,0,2.714-1.267c.4-.318.8-.655,1.154-.985a10.355,10.355,0,0,1-1.183,1.3c-.591.538-1.248.891-2.14,1.588-.409.32-.109.821.456.724a5.893,5.893,0,0,0,.782-.207c-.112.308.147.65.594.568a5.35,5.35,0,0,0,1.117-.461.508.508,0,0,0,.492.131c2.355-.541,6.386-3.923,7.3-5.142C516.671,268.492,513.174,267.408,510.556,267.728Z" fill="#fbcdb6"/>
                    <path id="Path_122974" data-name="Path 122974" d="M507.291,222.752c-2.416,1.95-4.575,6.054-1.092,11.333s13.4,10.766,15.823,15.861c1.443,3.038-11.957,16.069-11.983,17.73s2.522,5.706,3.5,6.179c1.729.838,20.553-17.433,20.553-24.036S512.478,218.563,507.291,222.752Z" fill="#fec35b"/>
                  </g>
                  <path id="Path_122975" data-name="Path 122975" d="M498.491,209.052a29.546,29.546,0,0,0,1.452,6.912,11.093,11.093,0,0,0,3.822,5.247c1.447,1.287-5.776,8.96-12.208,10.906,0,0-4.664-5.682-2.525-8.849s3.833-3.446,3.067-7.675c-.668-3.686-1.066-5.73-1.066-5.73Z" fill="#fbcdb6"/>
                  <g id="Group_283618" data-name="Group 283618">
                    <g id="Group_283610" data-name="Group 283610">
                      <path id="Path_122976" data-name="Path 122976" d="M488.554,211.017c0,1.816-.746,3.294-1.663,3.294s-1.663-1.478-1.663-3.294a4.457,4.457,0,0,1,.851-2.857c.156-.2-.043-.355-.2-.154a4.691,4.691,0,0,0-.9,3.011c0,1.987.841,3.543,1.913,3.543S488.8,213,488.8,211.017a4.815,4.815,0,0,0-.534-2.477c-.041.048-.144.13-.189.18A5.091,5.091,0,0,1,488.554,211.017Z" fill="#fff"/>
                    </g>
                    <g id="Group_283612" data-name="Group 283612">
                      <path id="Path_122977" data-name="Path 122977" d="M498.491,209.052s-1.043,7.9-8.463,7.338c-3.726-.281-5.631-7.928-4.177-9.85a22.2,22.2,0,0,1,0-7.012c.66-3.163,6.9-4.819,11.988-3.271,0,0,1.46,1.39.9,7.6a1.9,1.9,0,0,1,2.413-.325c1.119.61,1.237,2.054.857,3.416C501.554,208.584,499.851,209.991,498.491,209.052Z" fill="#fbcdb6" fill-rule="evenodd"/>
                      <path id="Path_122978" data-name="Path 122978" d="M499.017,208.451l.554-1.477-.947-.393s.615-2.761,2.155-1.743C502.044,205.674,500.6,209.012,499.017,208.451Z" fill="#f6bea2"/>
                      <g id="Group_283611" data-name="Group 283611">
                        <path id="Path_122979" data-name="Path 122979" d="M501.381,211.017c0,1.816-.746,3.294-1.663,3.294s-1.663-1.478-1.663-3.294a4.463,4.463,0,0,1,.851-2.857c.156-.2-.043-.355-.2-.154a4.691,4.691,0,0,0-.9,3.011c0,1.987.841,3.543,1.913,3.543s1.912-1.556,1.912-3.543a4.815,4.815,0,0,0-.534-2.477c-.041.048-.144.13-.189.18A5.078,5.078,0,0,1,501.381,211.017Z" fill="#fff"/>
                      </g>
                    </g>
                    <g id="Group_283617" data-name="Group 283617">
                      <g id="Group_283613" data-name="Group 283613">
                        <path id="Path_122980" data-name="Path 122980" d="M488.071,211.462s.5-1.232,4.4-.829C492.028,212.694,488.383,213.709,488.071,211.462Z" fill="#f3af8c"/>
                        <path id="Path_122981" data-name="Path 122981" d="M488.071,211.462a13.111,13.111,0,0,0,4.4-.829" fill="#e57e55" stroke="#e57e55" stroke-miterlimit="10" stroke-width="0.249" style="mix-blend-mode: multiply;isolation: isolate"/>
                      </g>
                      <g id="Group_283614" data-name="Group 283614">
                        <path id="Path_122982" data-name="Path 122982" d="M485.876,206.44c.029.35.489.375,1.049.329s1.01-.149.981-.5-.508-.6-1.068-.548S485.847,206.09,485.876,206.44Z" fill="#3e2344"/>
                        <path id="Path_122983" data-name="Path 122983" d="M484.712,204.981c-.017.051,1.3-1.124,1.654-1.1s1.668.508,1.8.326a2.751,2.751,0,0,0,.258-.581,10.335,10.335,0,0,0-2.24-.226A4.051,4.051,0,0,0,484.712,204.981Z" fill="#3e2344"/>
                      </g>
                      <g id="Group_283615" data-name="Group 283615">
                        <path id="Path_122984" data-name="Path 122984" d="M491.013,206.01c.03.35.489.376,1.05.329s1.009-.149.98-.5-.507-.6-1.068-.549S490.984,205.66,491.013,206.01Z" fill="#3e2344"/>
                        <path id="Path_122985" data-name="Path 122985" d="M494.342,203.78a9.181,9.181,0,0,0-2.185-.568c-.44.113-1.856.828-2.044.681a2.316,2.316,0,0,1-.4-.513,15.687,15.687,0,0,1,2.573-.681A4.01,4.01,0,0,1,494.342,203.78Z" fill="#3e2344"/>
                      </g>
                      <g id="Group_283616" data-name="Group 283616">
                        <path id="Path_122986" data-name="Path 122986" d="M488.761,209.432s1.3-.043,1.267-.4-2.743-.745-2.892-.489S488.179,209.27,488.761,209.432Z" fill="#e57e55" opacity="0.5"/>
                        <path id="Path_122987" data-name="Path 122987" d="M488.538,204.043a6.541,6.541,0,0,1,.184,2.208c-.194.585-1.384,1.9-1.409,2.181s1.347.96,1.448,1-1.956-.275-1.9-.913,1.59-2.242,1.645-2.555S488.538,204.043,488.538,204.043Z" fill="#e57e55"/>
                      </g>
                    </g>
                  </g>
                  <path id="Path_122988" data-name="Path 122988" d="M496.211,196.826c-6.183.654-8.926,6.475-13.455,6.48-2.8-4.871,5.763-17.234,15.868-7.636,4.634,4.4.455,7.773.455,7.773L498.047,207s.09-2.67-.86-3.694A5.82,5.82,0,0,1,496.211,196.826Z" fill="#3e2344"/>
                </g>
              </g>
            </g>
          </g>
          <g id="Group_283025" data-name="Group 283025" transform="translate(130.599 151.568)">
            <g id="Group_283002" data-name="Group 283002" transform="translate(92.932 38.454)">
              <path id="Path_122625" data-name="Path 122625" d="M1326.364,1241.876c-.817,2.2-2.234,4.749-3.721,5.383a5.76,5.76,0,0,0-2.389,1.735l-1.361-.79-1.626-.945s.038-.18.118-.474.2-.7.365-1.153a1.573,1.573,0,0,0,.193-1.446,3.36,3.36,0,0,1,.277-2.807c.522-.757,1.025-2.625,1.339-2.569.76.131-.374,2.7-.048,3.173a.562.562,0,0,0,.731.25l.013-.007c2.133-.938,4.719-5.993,5.865-5.311C1326.547,1237.17,1326.713,1240.939,1326.364,1241.876Z" transform="translate(-1317.268 -1236.851)" fill="#fc9290"/>
            </g>
            <g id="Group_283005" data-name="Group 283005" transform="translate(94.472 36.039)">
              <g id="Group_283003" data-name="Group 283003">
                <path id="Path_122626" data-name="Path 122626" d="M1322.042,1240.144l2.672,1.878a.421.421,0,0,0,.585-.1l6.844-9.739a.421.421,0,0,0-.1-.584l-2.672-1.878a.421.421,0,0,0-.584.1l-6.844,9.739A.42.42,0,0,0,1322.042,1240.144Z" transform="translate(-1321.864 -1229.643)" fill="#1978a7"/>
              </g>
              <g id="Group_283004" data-name="Group 283004" transform="translate(2.489 1.737)">
                <path id="Path_122627" data-name="Path 122627" d="M1329.425,1245.309l1.566,1.1a.32.32,0,0,0,.445-.078l6.96-9.9a.32.32,0,0,0-.078-.444l-1.566-1.1a.32.32,0,0,0-.444.077l-6.96,9.9A.32.32,0,0,0,1329.425,1245.309Z" transform="translate(-1329.29 -1234.826)" fill="#1381b7"/>
              </g>
            </g>
            <g id="Group_283006" data-name="Group 283006" transform="translate(48.921 32.565)">
              <path id="Path_122628" data-name="Path 122628" d="M1193.337,1219.277s13.6,23.712,18.527,28.076l18.085-13.483a6.6,6.6,0,0,1,3.773,3.439s-10.982,22.375-21.8,23.323-25.989-26.818-25.989-26.818Z" transform="translate(-1185.939 -1219.277)" fill="#60a6df"/>
            </g>
            <g id="Group_283007" data-name="Group 283007" transform="translate(11.637 177.903)">
              <path id="Path_122629" data-name="Path 122629" d="M1088.6,1668.917h-7.855a4.762,4.762,0,0,1-2.148-3.6c-.384-2.531-3.22-3.911-3.834-5.981s2.531-4.982,2.531-4.982l.525-.678.547-.7,5.214,1.228s.129,1.241.207,2.823c.057,1.142.087,2.46.023,3.617-.154,2.76.771,5.732,3.224,6.269C1088.845,1667.306,1088.764,1668.382,1088.6,1668.917Z" transform="translate(-1074.681 -1652.973)" fill="#060632"/>
            </g>
            <g id="Group_283008" data-name="Group 283008" transform="translate(52.596 184.66)">
              <path id="Path_122630" data-name="Path 122630" d="M1215.452,1682.323h-17.964c-.864-1.055-.546-4.945-.415-6.216.027-.256.046-.4.046-.4s6.135-4.907,6.977-1.15c.026.118.057.233.091.347,1.061,3.514,5.823,5.111,8.572,5.557A3.114,3.114,0,0,1,1215.452,1682.323Z" transform="translate(-1196.906 -1673.136)" fill="#060632"/>
            </g>
            <g id="Group_283009" data-name="Group 283009" transform="translate(41.693 91.963)">
              <path id="Path_122631" data-name="Path 122631" d="M1190.4,1398.132s-.931,11.622-2.026,25.592c-1.488,18.977-3.277,42.287-3.454,46.7-.306,7.667-1.534,19.933-1.534,19.933s-2.912,2.914-8.74,1.686a200.629,200.629,0,0,1-6.677-36.035q-.035-.456-.069-.915c-1.38-18.86-3.526-58.573-3.526-58.573Z" transform="translate(-1164.37 -1396.522)" fill="#284f63"/>
            </g>
            <g id="Group_283010" data-name="Group 283010" transform="translate(41.693 91.963)">
              <path id="Path_122632" data-name="Path 122632" d="M1190.4,1398.132s-.931,11.622-2.026,25.592l-20.4,32.287q-.035-.456-.069-.915c-1.38-18.86-3.526-58.573-3.526-58.573Z" transform="translate(-1164.37 -1396.522)" fill="#284f63"/>
            </g>
            <g id="Group_283011" data-name="Group 283011" transform="translate(14.247 87.363)">
              <path id="Path_122633" data-name="Path 122633" d="M1131.688,1390.385s-16.79,42.089-27.829,61.869-14.49,25.3-14.49,25.3-6.324-2.53-6.9-4.255c0,0,4.221-38.185,11.615-47.494,4.177-5.26,9.085-21.045,9.315-26.564s1.495-16.445,1.495-16.445Z" transform="translate(-1082.469 -1382.796)" fill="#284f63"/>
            </g>
            <g id="Group_283012" data-name="Group 283012" transform="translate(41.373 16.1)">
              <path id="Path_122634" data-name="Path 122634" d="M1181.327,1187.639c-6.561,2.07-17.913-3.517-17.913-3.517s6.049-4.54,5.733-13.979l5.073,4.088,3.446,2.777a41.219,41.219,0,0,1-.391,4.506c-.1.755-.223,1.6-.379,2.515A15.7,15.7,0,0,1,1181.327,1187.639Z" transform="translate(-1163.414 -1170.143)" fill="#ffbe9d"/>
            </g>
            <g id="Group_283013" data-name="Group 283013" transform="translate(47.084 20.089)">
              <path id="Path_122635" data-name="Path 122635" d="M1189,1184.922a41.254,41.254,0,0,1-.391,4.506c-3.818-.655-8.149-6.826-8.149-6.826a12.166,12.166,0,0,1,5.094-.457Z" transform="translate(-1180.456 -1182.047)" fill="#ffb27d"/>
            </g>
            <g id="Group_283014" data-name="Group 283014" transform="translate(44.668 4.88)">
              <path id="Path_122636" data-name="Path 122636" d="M1186.209,1154.592s-10.837,1.8-11.855-4.966-3.1-11.09,3.775-12.526,8.612.944,9.5,3.119S1189,1153.949,1186.209,1154.592Z" transform="translate(-1173.247 -1136.663)" fill="#ffbe9d"/>
            </g>
            <g id="Group_283015" data-name="Group 283015" transform="translate(35.391 27.468)">
              <path id="Path_122637" data-name="Path 122637" d="M1178.616,1271.139a1.061,1.061,0,0,1-.689.263c-2.464-.033-9.648,1.335-15.727.711a45.288,45.288,0,0,1-14.532-4.194c-.647-.289-2.136-1.084-2.1-1.807.022-.792.1-1.94.2-3.386a181.024,181.024,0,0,0,.36-23.654c-.106-1.858-.161-3.7-.167-5.515-.05-13.522,2.631-25.415,8.019-29.441.46-.33,3.285,1.051,5.881,2.332a10.746,10.746,0,0,0,7.063.855l2.266,2a22.646,22.646,0,0,1,7.1,11.335c1.118,4.5,1.774,12.616,2.136,21.027.164,3.811.3,7.655.329,11.3v.131c.032.361.032.757.032,1.118C1178.913,1263.582,1178.781,1271.006,1178.616,1271.139Z" transform="translate(-1145.564 -1204.066)" fill="#60a6df"/>
            </g>
            <g id="Group_283016" data-name="Group 283016" transform="translate(35.591 47.565)">
              <path id="Path_122638" data-name="Path 122638" d="M1146.16,1302.6a181.128,181.128,0,0,0,.36-23.654c-.106-1.858-.161-3.7-.167-5.515,2.245-5.445,4.079-9.393,4.079-9.393h5.657S1160.236,1292.368,1146.16,1302.6Z" transform="translate(-1146.16 -1264.038)" fill="#4491cf"/>
            </g>
            <g id="Group_283021" data-name="Group 283021" transform="translate(17.634 85.451)">
              <path id="Path_122641" data-name="Path 122641" d="M1099.9,1378.74a8.375,8.375,0,0,0-1.317,2.362c-.341,4.571,1.748,5.2-3.66,7.743,0,0-2.309.88-2.348-.911s1.6-1.822,1.3-4.331c-.346-2.895-.311-2.921,1.588-4.433l1.258-2.079Z" transform="translate(-1092.577 -1377.091)" fill="#fc9290"/>
            </g>
            <g id="Group_283022" data-name="Group 283022" transform="translate(18.937 28.416)">
              <path id="Path_122642" data-name="Path 122642" d="M1099.265,1266.875a18.546,18.546,0,0,0,4.245.236s6.048-18.683,6.827-20.39,17.964-21.907,17.964-21.907l-7.159-17.917s-18.589,31.05-20.476,35.413c-3.119,7.21-4.2,23.374-4.2,23.374A7.784,7.784,0,0,0,1099.265,1266.875Z" transform="translate(-1096.464 -1206.897)" fill="#60a6df"/>
            </g>
            <g id="Group_283023" data-name="Group 283023" transform="translate(43.13)">
              <path id="Path_122643" data-name="Path 122643" d="M1171.3,1139.293s1.112-.186.933-1.718-.177-3.534,1.069-3.16,1.307,1.37,1.819.788.521-3.036,4.226-3.206,5.212,1.119,6.935.361,1.814-3.366,1.814-3.366a2.964,2.964,0,0,1-1.23,1.228s2.875-3.932-.453-6.628-6.722-.931-8.649-.815c-4.244.257-6.985.512-8.372,3.3S1168.572,1136.609,1171.3,1139.293Z" transform="translate(-1168.659 -1122.101)" fill="#030231"/>
            </g>
            <g id="Group_283024" data-name="Group 283024" transform="translate(22.852 89.111)">
              <path id="Path_122644" data-name="Path 122644" d="M1108.255,1388.011s1.22,1.272,1.3,1.8c.247,1.7.814,2.432.53,2.617-.591.384-1.373-.873-1.747-2A5.155,5.155,0,0,1,1108.255,1388.011Z" transform="translate(-1108.146 -1388.011)" fill="#fc9290"/>
            </g>
          </g>
        </g>
        <g id="Group_282932" data-name="Group 282932" transform="translate(818 1226)">
          <path id="Rectangle_160704" data-name="Rectangle 160704" d="M.81,0H569.19a.81.81,0,0,1,.81.81v0a.81.81,0,0,1-.81.81H.81A.81.81,0,0,1,0,.81v0A.81.81,0,0,1,.81,0Z" fill="#010117"/>
        </g>
      </g>
      <g id="Group_273448" data-name="Group 273448" transform="translate(813.609 844.896)">
        <g id="Group_17428" data-name="Group 17428" transform="translate(28.04 344.043)">
          <g id="Group_17427" data-name="Group 17427" transform="translate(0 0)">
            <g id="Group_17426" data-name="Group 17426">
              <path id="Path_9202" data-name="Path 9202" d="M76.1,384.2a10.2,10.2,0,0,0,8.713-1.627,22.018,22.018,0,0,0,5.56-6.679,9.871,9.871,0,0,0,1.458-3.424,3.73,3.73,0,0,0-1.051-3.424c-1.492-1.254-3.763-.61-5.424.339A18.831,18.831,0,0,0,76.1,384.2" transform="translate(-76.1 -368.347)" fill="#60a6df"/>
            </g>
          </g>
        </g>
        <g id="Group_17431" data-name="Group 17431" transform="translate(30.99 362.119)">
          <g id="Group_17430" data-name="Group 17430" transform="translate(0)">
            <g id="Group_17429" data-name="Group 17429">
              <path id="Path_9203" data-name="Path 9203" d="M84.8,426.05c1.661,2.17,4.509,3.153,7.255,3.288a19.759,19.759,0,0,0,8-1.627,3.6,3.6,0,0,0,2.271-1.8,2.271,2.271,0,0,0-.475-2.1,4.775,4.775,0,0,0-1.865-1.254,12.632,12.632,0,0,0-8.069-.441A19.9,19.9,0,0,0,84.8,426.05" transform="translate(-84.8 -421.664)" fill="#60a6df"/>
            </g>
          </g>
        </g>
        <g id="Group_17434" data-name="Group 17434" transform="translate(26.857 331.578)">
          <g id="Group_17433" data-name="Group 17433" transform="translate(0)">
            <g id="Group_17432" data-name="Group 17432">
              <path id="Path_9204" data-name="Path 9204" d="M73.759,348.062c2.271.034,4-1.966,5.051-4a14.691,14.691,0,0,0,1.356-9.221,4.032,4.032,0,0,0-1.7-2.983,2.982,2.982,0,0,0-3.322.61,6.755,6.755,0,0,0-1.729,3.119,20.627,20.627,0,0,0,.339,12.476" transform="translate(-72.61 -331.578)" fill="#60a6df"/>
            </g>
          </g>
        </g>
        <g id="Group_17437" data-name="Group 17437" transform="translate(16.839 335.988)">
          <g id="Group_17436" data-name="Group 17436" transform="translate(0 0)">
            <g id="Group_17435" data-name="Group 17435">
              <path id="Path_9205" data-name="Path 9205" d="M46.735,369.305a27.426,27.426,0,0,0,2.238-22.07c-.373-1.187-1.085-2.543-2.305-2.644-1.39-.1-2.238,1.458-2.61,2.78-1.322,4.645-1.051,9.594-.746,14.442a10.006,10.006,0,0,0,3.424,7.492" transform="translate(-43.06 -344.586)" fill="#60a6df"/>
            </g>
          </g>
        </g>
        <g id="Group_17440" data-name="Group 17440" transform="translate(3.391 353.07)">
          <g id="Group_17439" data-name="Group 17439">
            <g id="Group_17438" data-name="Group 17438">
              <path id="Path_9206" data-name="Path 9206" d="M16.446,405.323a15.837,15.837,0,0,0-9.459-10c-1.017-.373-2.339-.61-3.119.17-.746.78-.509,2.068-.034,3.051a15.755,15.755,0,0,0,3.322,4.034,14.118,14.118,0,0,0,3.8,2.848c1.492.61,4.17.78,5.492-.1" transform="translate(-3.391 -394.974)" fill="#60a6df"/>
            </g>
          </g>
        </g>
        <g id="Group_17444" data-name="Group 17444" transform="translate(22.752 346.4)">
          <g id="Group_17443" data-name="Group 17443" transform="translate(0 0)">
            <g id="Group_17442" data-name="Group 17442">
              <g id="Group_17441" data-name="Group 17441">
                <path id="Path_9207" data-name="Path 9207" d="M78.332,375.3l-.068.068a.9.9,0,0,0-.2.169q-.305.2-.814.61c-.17.136-.373.271-.576.441s-.441.339-.678.542c-.475.407-1.051.848-1.627,1.39-.305.271-.61.542-.915.848l-.949.949c-.678.644-1.322,1.39-2,2.17a44.58,44.58,0,0,0-4,5.458,46.3,46.3,0,0,0-3.085,6.034c-.373.983-.78,1.9-1.051,2.78-.136.441-.305.847-.407,1.288-.1.407-.237.814-.339,1.187-.237.746-.373,1.458-.509,2.068-.068.305-.136.576-.2.848-.034.271-.1.508-.136.712-.068.441-.136.746-.17,1.017-.034.1-.034.2-.068.271a.148.148,0,0,1-.034.1v-.1c0-.068.034-.17.034-.271.034-.237.1-.576.136-1.017l.1-.712c.034-.271.1-.542.17-.848.136-.61.271-1.322.475-2.068.1-.373.2-.78.339-1.187.1-.407.271-.848.407-1.288.271-.882.644-1.831,1.017-2.78a46.616,46.616,0,0,1,3.085-6.068,46.116,46.116,0,0,1,4.034-5.492c.712-.78,1.356-1.526,2.034-2.17l.949-.949c.339-.271.644-.576.915-.814a17.3,17.3,0,0,1,1.661-1.356c.237-.2.475-.373.678-.542a6.885,6.885,0,0,1,.61-.441c.339-.237.644-.441.848-.576a2,2,0,0,0,.2-.136Z" transform="translate(-60.5 -375.3)" fill="#0e314c"/>
              </g>
            </g>
          </g>
        </g>
        <g id="Group_17448" data-name="Group 17448" transform="translate(22.887 364.044)">
          <g id="Group_17447" data-name="Group 17447">
            <g id="Group_17446" data-name="Group 17446">
              <g id="Group_17445" data-name="Group 17445">
                <path id="Path_9208" data-name="Path 9208" d="M83.75,428.075a1.534,1.534,0,0,1-.271-.034c-.17-.034-.441-.1-.746-.169a19.877,19.877,0,0,0-2.814-.339,20.486,20.486,0,0,0-16.68,6.916,22.837,22.837,0,0,0-1.729,2.237c-.2.271-.339.509-.441.644s-.136.237-.17.237a.938.938,0,0,1,.136-.237c.1-.136.2-.373.407-.678a17.472,17.472,0,0,1,1.7-2.271,20.486,20.486,0,0,1,7.56-5.492,20.273,20.273,0,0,1,9.221-1.492,18.285,18.285,0,0,1,2.814.407,4.364,4.364,0,0,1,.746.2,2.476,2.476,0,0,1,.271.068Z" transform="translate(-60.9 -427.345)" fill="#0e314c"/>
              </g>
            </g>
          </g>
        </g>
        <g id="Group_17452" data-name="Group 17452" transform="translate(22.718 334.535)">
          <g id="Group_17451" data-name="Group 17451">
            <g id="Group_17450" data-name="Group 17450">
              <g id="Group_17449" data-name="Group 17449">
                <path id="Path_9209" data-name="Path 9209" d="M69.045,340.3v.1a1.718,1.718,0,0,1-.068.305c-.068.271-.136.644-.271,1.153-.237.983-.576,2.407-.983,4.17-.848,3.526-2.1,8.374-3.39,13.764-.644,2.678-1.22,5.255-1.729,7.594s-.915,4.475-1.22,6.238c-.17.882-.305,1.7-.407,2.407-.136.712-.2,1.322-.305,1.831-.068.475-.136.881-.17,1.153a2.161,2.161,0,0,1-.068.305.149.149,0,0,1-.034.1v-.1c0-.068.034-.169.034-.305.034-.271.068-.678.136-1.153.068-.509.136-1.119.271-1.831.1-.712.237-1.526.373-2.407.305-1.8.712-3.9,1.187-6.272.509-2.339,1.085-4.916,1.729-7.628,1.288-5.39,2.577-10.238,3.458-13.764.441-1.763.814-3.153,1.051-4.17.136-.475.2-.848.305-1.119a1.259,1.259,0,0,0,.068-.305.105.105,0,0,0,.034-.068Z" transform="translate(-60.4 -340.3)" fill="#0e314c"/>
              </g>
            </g>
          </g>
        </g>
        <g id="Group_17456" data-name="Group 17456" transform="translate(19.72 341.112)">
          <g id="Group_17455" data-name="Group 17455" transform="translate(0 0)">
            <g id="Group_17454" data-name="Group 17454">
              <g id="Group_17453" data-name="Group 17453">
                <path id="Path_9210" data-name="Path 9210" d="M54.285,391.7a.105.105,0,0,0-.034-.068.863.863,0,0,0-.068-.237,7.864,7.864,0,0,0-.2-.915c-.17-.814-.373-1.966-.644-3.39-.509-2.882-1.085-6.882-1.458-11.323-.17-2.237-.271-4.339-.305-6.272s0-3.661.034-5.153c.034-.746.068-1.39.1-1.966s.068-1.085.1-1.492.068-.712.1-.949c0-.1.034-.17.034-.237v.237c0,.237-.034.542-.068.949s-.068.915-.068,1.492c-.034.576-.068,1.254-.068,1.966-.034,1.458-.034,3.187,0,5.119.068,1.932.17,4.068.339,6.272.373,4.441.949,8.442,1.39,11.323.237,1.458.441,2.61.576,3.424.068.407.136.712.17.915,0,.1.034.17.034.237A.105.105,0,0,1,54.285,391.7Z" transform="translate(-51.559 -359.7)" fill="#0e314c"/>
              </g>
            </g>
          </g>
        </g>
        <g id="Group_17460" data-name="Group 17460" transform="translate(7.021 355.825)">
          <g id="Group_17459" data-name="Group 17459">
            <g id="Group_17458" data-name="Group 17458">
              <g id="Group_17457" data-name="Group 17457">
                <path id="Path_9211" data-name="Path 9211" d="M29.8,421.237s-.034-.068-.1-.237a6.959,6.959,0,0,0-.271-.678c-.068-.136-.1-.305-.17-.475s-.17-.373-.237-.576c-.1-.2-.17-.407-.271-.644s-.237-.475-.339-.712c-.136-.237-.271-.509-.407-.78s-.305-.542-.475-.814c-.305-.576-.712-1.153-1.119-1.763-.848-1.187-1.831-2.475-2.916-3.729a44.722,44.722,0,0,0-3.356-3.356c-.542-.475-1.085-.949-1.593-1.322-.237-.2-.509-.407-.746-.576l-.712-.509c-.441-.339-.848-.61-1.22-.848s-.678-.475-.949-.61c-.237-.17-.441-.271-.61-.373a1.551,1.551,0,0,0-.2-.136s.068.034.237.1c.17.1.373.2.61.339a5.464,5.464,0,0,1,.949.61c.373.237.78.509,1.254.848l.712.509c.237.2.475.373.746.576.509.407,1.051.848,1.593,1.322a44.9,44.9,0,0,1,3.39,3.356c1.119,1.288,2.1,2.577,2.949,3.763.373.61.78,1.187,1.085,1.763.17.271.305.542.475.814.136.271.271.542.373.78a6.776,6.776,0,0,1,.339.712c.1.237.2.441.271.644s.17.407.237.576.1.339.17.475c.1.271.17.509.237.678A1.07,1.07,0,0,1,29.8,421.237Z" transform="translate(-14.1 -403.1)" fill="#0e314c"/>
              </g>
            </g>
          </g>
        </g>
        <g id="Group_17491" data-name="Group 17491" transform="translate(16.073 372.132)">
          <g id="Group_17490" data-name="Group 17490">
            <g id="Group_17489" data-name="Group 17489">
              <path id="Path_9219" data-name="Path 9219" d="M40.8,451.2l2.17,11.391a1.6,1.6,0,0,0,1.559,1.288h6.407a1.572,1.572,0,0,0,1.559-1.322l1.9-11.357Z" transform="translate(-40.8 -451.2)" fill="#0e314c"/>
            </g>
          </g>
        </g>
        <g id="Group_17494" data-name="Group 17494" transform="translate(16.073 372.132)">
          <g id="Group_17493" data-name="Group 17493">
            <g id="Group_17492" data-name="Group 17492">
              <path id="Path_9220" data-name="Path 9220" d="M41.512,454.9H53.75l.644-3.7H40.8Z" transform="translate(-40.8 -451.2)" fill="#235f87"/>
            </g>
          </g>
        </g>
      </g>
    </g>
    <g id="Group_285416" data-name="Group 285416">
      <g id="Rectangle_160785" data-name="Rectangle 160785" transform="translate(955 1160)" fill="none" stroke="#60a6df" stroke-width="1">
        <rect width="75" height="24" rx="5" stroke="none"/>
        <rect x="0.5" y="0.5" width="74" height="23" rx="4.5" fill="none"/>
      </g>
      <text id="Buy_Now" data-name="Buy Now" transform="translate(970 1176)" fill="#60a6df" font-size="10" font-family="Montserrat-Medium, Montserrat" font-weight="500"><tspan x="0" y="0">Buy Now</tspan></text>
    </g>
    <g id="Group_285417" data-name="Group 285417" transform="translate(102)">
      <g id="Rectangle_160785-2" data-name="Rectangle 160785" transform="translate(955 1160)" fill="none" stroke="#60a6df" stroke-width="1">
        <rect width="75" height="24" rx="5" stroke="none"/>
        <rect x="0.5" y="0.5" width="74" height="23" rx="4.5" fill="none"/>
      </g>
      <text id="Buy_Now-2" data-name="Buy Now" transform="translate(970 1176)" fill="#60a6df" font-size="10" font-family="Montserrat-Medium, Montserrat" font-weight="500"><tspan x="0" y="0">Buy Now</tspan></text>
    </g>
    <g id="Group_285418" data-name="Group 285418" transform="translate(204)">
      <g id="Rectangle_160785-3" data-name="Rectangle 160785" transform="translate(955 1160)" fill="none" stroke="#60a6df" stroke-width="1">
        <rect width="75" height="24" rx="5" stroke="none"/>
        <rect x="0.5" y="0.5" width="74" height="23" rx="4.5" fill="none"/>
      </g>
      <text id="Buy_Now-3" data-name="Buy Now" transform="translate(970 1176)" fill="#60a6df" font-size="10" font-family="Montserrat-Medium, Montserrat" font-weight="500"><tspan x="0" y="0">Buy Now</tspan></text>
    </g>
  </g>
</svg>
