<svg width="45" height="45" viewBox="0 0 45 45" fill="none" xmlns="http://www.w3.org/2000/svg">
<path d="M21.2874 0V7.14086H23.7128V0H21.2871H21.2874ZM11.3832 2.14594L9.39603 3.5373L13.4911 9.38528L15.4773 7.99388L11.3832 2.14594ZM33.6165 2.14594L29.5225 7.99391L31.509 9.38531L35.604 3.5373L33.6168 2.14594H33.6165ZM22.4996 9.09465C16.5661 9.09465 11.7561 12.6978 11.7561 17.1431L17.86 35.6286H27.1402L33.2436 17.1431C33.2436 12.6978 28.4339 9.09465 22.5001 9.09465H22.4996ZM3.20493 11.2377L2.37622 13.5183L9.08306 15.96L9.91485 13.6806L3.20478 11.2377H3.20493ZM41.7948 11.2377L35.0847 13.6808L35.9136 15.9605L42.6237 13.5183L41.7948 11.2377ZM9.59085 21.663L2.6946 23.5128L3.32032 25.8539L10.2166 24.0069L9.59096 21.663H9.59085ZM35.4088 21.663L34.7836 24.0068L41.6798 25.8536L42.3051 23.5124L35.4088 21.663V21.663ZM17.7247 36.9762V40.1894H27.2755V36.9767H17.7248L17.7247 36.9762ZM17.7247 41.7868V45H27.2755V41.7873H17.7248L17.7247 41.7868Z" fill="black"/>
</svg>
