<svg width="45" height="45" viewBox="0 0 45 45" fill="none" xmlns="http://www.w3.org/2000/svg">
<path d="M18.3572 30.3244L18.3544 30.316L17.82 30.1416C15.2785 29.2433 13.0487 27.6334 11.3963 25.5038C10.06 23.783 9.14182 21.7753 8.71416 19.6391C8.2865 17.5028 8.36105 15.2964 8.93194 13.1938C9.50282 11.0913 10.5544 9.15014 12.0038 7.52352C13.4531 5.89689 15.2606 4.62928 17.2837 3.82065C19.3067 3.01202 21.49 2.68451 23.6612 2.86394C25.8325 3.04337 27.9324 3.72483 29.7952 4.85458C31.6581 5.98433 33.233 7.53146 34.3956 9.37394C35.5583 11.2164 36.277 13.3039 36.495 15.4716C36.5709 16.245 35.9325 16.875 35.1562 16.875C34.38 16.875 33.7584 16.2422 33.6656 15.4716C33.4146 13.4827 32.6367 11.597 31.4124 10.0096C30.1881 8.42216 28.5618 7.19074 26.7019 6.44272C24.842 5.6947 22.816 5.45725 20.8336 5.75494C18.8511 6.05263 16.9842 6.87465 15.426 8.13594C13.8678 9.39722 12.675 11.052 11.9709 12.9289C11.2668 14.8059 11.077 16.8369 11.4212 18.8118C11.7654 20.7868 12.6311 22.6338 13.9287 24.1619C15.2262 25.69 16.9086 26.8437 18.8016 27.5035C19.2791 26.6326 20.0485 25.958 20.9744 25.5987C21.9004 25.2394 22.9234 25.2182 23.8634 25.539C24.8034 25.8598 25.6 26.502 26.1131 27.3524C26.6261 28.2028 26.8227 29.207 26.6681 30.1881C26.5136 31.1692 26.0178 32.0644 25.2682 32.7159C24.5185 33.3674 23.563 33.7336 22.5699 33.7498C21.5769 33.7661 20.6099 33.4315 19.8393 32.8049C19.0687 32.1783 18.5438 31.2999 18.3572 30.3244ZM16.1269 32.5041C13.3723 31.3795 10.9641 29.5466 9.14625 27.1913C8.6842 27.8842 8.43759 28.6984 8.4375 29.5313V30.9375C8.4375 36.481 13.6687 42.1875 22.5 42.1875C31.3313 42.1875 36.5625 36.481 36.5625 30.9375V29.5313C36.5625 28.4124 36.118 27.3393 35.3269 26.5482C34.5357 25.757 33.4626 25.3125 32.3438 25.3125H28.125C28.7149 26.1003 29.1328 27.0032 29.3518 27.9627C29.5707 28.9222 29.5858 29.917 29.396 30.8827C29.2062 31.8485 28.8158 32.7636 28.25 33.5689C27.6842 34.3742 26.9557 35.0517 26.1115 35.5577C25.2674 36.0637 24.3264 36.3868 23.3495 36.5062C22.3726 36.6256 21.3815 36.5385 20.4403 36.2507C19.4992 35.9628 18.6289 35.4806 17.8859 34.8353C17.1429 34.1899 16.5436 33.3957 16.1269 32.5041ZM30.9375 16.875C30.9375 14.3044 29.7872 12.001 27.9731 10.4541C27.0874 9.70384 26.0564 9.14442 24.9446 8.81082C23.8328 8.47722 22.6642 8.37661 21.5117 8.51528C20.3593 8.65394 19.2478 9.02891 18.2469 9.61673C17.246 10.2045 16.3771 10.9926 15.6946 11.9315C15.0122 12.8704 14.5308 13.9401 14.2805 15.0736C14.0303 16.207 14.0167 17.3799 14.2405 18.5189C14.4642 19.6579 14.9206 20.7385 15.581 21.693C16.2415 22.6476 17.0918 23.4556 18.0787 24.0666C19.3294 23.0527 20.89 22.4987 22.5 22.4972C24.1093 22.4971 25.6699 23.0491 26.9212 24.061C28.1486 23.3058 29.1622 22.2489 29.8652 20.991C30.5683 19.7331 30.9374 18.3161 30.9375 16.875Z" fill="black"/>
</svg>
