<svg width="45" height="45" viewBox="0 0 45 45" fill="none" xmlns="http://www.w3.org/2000/svg">
<g clip-path="url(#clip0_32319_16048)">
<path fill-rule="evenodd" clip-rule="evenodd" d="M33.1907 0.900057C33.3587 0.630325 33.6028 0.416437 33.8923 0.285423C34.1818 0.154409 34.5036 0.11215 34.8171 0.163986L43.0811 1.54291C43.5012 1.613 43.8764 1.84704 44.1241 2.19359C44.3718 2.54015 44.4718 2.97088 44.4021 3.39113L43.0264 11.6583C42.9739 11.9717 42.8297 12.2624 42.612 12.4939C42.3943 12.7253 42.1128 12.8871 41.8032 12.9586C41.4937 13.0302 41.1698 13.0083 40.8726 12.8959C40.5754 12.7834 40.3182 12.5854 40.1336 12.3268L37.9028 9.20899L26.415 16.5504C25.9251 16.8639 25.3384 16.9897 24.763 16.9046C24.1877 16.8196 23.6625 16.5294 23.2843 16.0876L16.8782 8.59827L4.89855 14.7536C4.32995 15.046 3.66847 15.1006 3.05965 14.9053C2.45083 14.71 1.94453 14.2808 1.65212 13.7122C1.35972 13.1436 1.30518 12.4821 1.50048 11.8733C1.69579 11.2645 2.12495 10.7582 2.69355 10.4658L16.3703 3.43613C16.8532 3.18807 17.4056 3.11024 17.9382 3.21524C18.4708 3.32024 18.9524 3.60193 19.305 4.0147L25.5857 11.3593L35.1 5.27791L33.2453 2.68399C33.061 2.42532 32.9573 2.11781 32.9476 1.8003C32.9379 1.48279 33.0225 1.16952 33.1907 0.900057ZM12.15 16.6822L2.82212 22.0179C2.45363 22.2284 2.14722 22.5324 1.93388 22.8993C1.72054 23.2662 1.60783 23.6828 1.60712 24.1072V42.5893C1.60712 43.9201 2.68712 45.0001 4.01784 45.0001H12.15V16.6822ZM16.1678 45.0001H27.9578V23.1043L22.6575 25.7529L17.3603 16.4829C17.0922 16.012 16.6733 15.6451 16.1711 15.4415L16.1678 45.0001ZM40.9821 45.0001H31.9757V21.0954L39.9053 17.129C40.2729 16.9455 40.6812 16.859 41.0916 16.8776C41.5019 16.8963 41.9007 17.0195 42.2501 17.2355C42.5995 17.4516 42.8879 17.7534 43.0878 18.1122C43.2878 18.471 43.3928 18.875 43.3928 19.2858V42.5893C43.3928 43.2287 43.1389 43.8419 42.6868 44.294C42.2347 44.7461 41.6215 45.0001 40.9821 45.0001Z" fill="black"/>
</g>
<defs>
<clipPath id="clip0_32319_16048">
<rect width="45" height="45" fill="white"/>
</clipPath>
</defs>
</svg>
