<svg width="98" height="100" viewBox="0 0 98 100" fill="none" xmlns="http://www.w3.org/2000/svg">
<mask id="mask0_32236_2536" style="mask-type:luminance" maskUnits="userSpaceOnUse" x="0" y="0" width="98" height="100">
<path d="M44.7395 76.7269C44.792 73.4866 44.0777 70.2801 42.6553 67.3717L66.6924 43.2156C69.4314 44.3291 72.3525 44.921 75.3068 44.961C79.7311 44.961 84.0561 43.6426 87.7348 41.1724C91.4135 38.7022 94.2807 35.1912 95.9738 31.0835C97.6669 26.9757 98.1099 22.4556 97.2467 18.0948C96.3836 13.734 94.2531 9.7284 91.1246 6.58445C87.9962 3.4405 84.0103 1.29941 79.6709 0.431999C75.3316 -0.435415 70.8338 0.00976403 66.7463 1.71126C62.6588 3.41275 59.1651 6.29415 56.7071 9.99105C54.2491 13.6879 52.9371 18.0343 52.9371 22.4805C53.0027 26.0823 53.8316 29.6286 55.3686 32.883L32.0262 56.3409C29.0083 54.9122 25.7054 54.1958 22.3697 54.2464C17.9454 54.2464 13.6205 55.5649 9.94179 58.0351C6.26311 60.5052 3.39592 64.0163 1.70281 68.124C0.00969539 72.2318 -0.433304 76.7519 0.429837 81.1126C1.29298 85.4734 3.42349 89.479 6.55195 92.623C9.68042 95.7669 13.6663 97.908 18.0056 98.7754C22.3449 99.6429 26.8427 99.1977 30.9303 97.4962C35.0178 95.7947 38.5115 92.9133 40.9695 89.2164C43.4275 85.5195 44.7395 81.1731 44.7395 76.7269Z" fill="white"/>
</mask>
<g mask="url(#mask0_32236_2536)">
<path d="M0.414062 -0.277817V99.139H97.6738V-0.277817H0.414062Z" fill="#278083" fill-opacity="0.03"/>
</g>
</svg>
