<svg width="41" height="41" viewBox="0 0 41 41" fill="none" xmlns="http://www.w3.org/2000/svg">
<path d="M40.4021 20.2084C40.4021 30.4146 32.8389 38.8522 23.0137 40.2214C22.095 40.3489 21.1551 40.4154 20.2011 40.4154C19.0998 40.4154 18.0183 40.3276 16.9651 40.1577C7.34661 38.6087 0 30.2659 0 20.2084C0 9.04791 9.04525 0 20.2025 0C31.3597 0 40.4049 9.04791 40.4049 20.2084H40.4021Z" fill="#EAEAEA"/>
<path d="M23.0138 16.2268V20.629H28.4579L27.5959 26.559H23.0138V40.2214C22.0951 40.3489 21.1552 40.4154 20.2011 40.4154C19.0999 40.4154 18.0184 40.3276 16.9652 40.1577V26.559H11.9443V20.629H16.9652V15.2427C16.9652 11.9011 19.6731 9.19092 23.0152 9.19092V9.19375C23.0251 9.19375 23.0336 9.19092 23.0435 9.19092H28.4593V14.3195H24.9205C23.8688 14.3195 23.0152 15.1733 23.0152 16.2254L23.0138 16.2268Z" fill="#278083"/>
</svg>
