<svg width="32" height="32" viewBox="0 0 32 32" fill="none" xmlns="http://www.w3.org/2000/svg">
<path d="M22.4001 4.4C22.4001 4.08174 22.5265 3.77652 22.7515 3.55147C22.9766 3.32643 23.2818 3.2 23.6001 3.2H27.6001C27.9183 3.2 28.2236 3.32643 28.4486 3.55147C28.6736 3.77652 28.8001 4.08174 28.8001 4.4V8.4C28.8001 8.71826 28.6736 9.02349 28.4486 9.24853C28.2236 9.47357 27.9183 9.6 27.6001 9.6C27.2818 9.6 26.9766 9.47357 26.7515 9.24853C26.5265 9.02349 26.4001 8.71826 26.4001 8.4V7.296L19.2481 14.448C19.0231 14.6727 18.7181 14.7989 18.4001 14.7989C18.0821 14.7989 17.7771 14.6727 17.5521 14.448L13.6001 10.496L6.84808 17.248C6.73822 17.3659 6.60573 17.4605 6.45854 17.5261C6.31134 17.5916 6.15244 17.6269 5.99131 17.6297C5.83019 17.6326 5.67014 17.603 5.52072 17.5426C5.3713 17.4822 5.23556 17.3924 5.12161 17.2785C5.00766 17.1645 4.91783 17.0288 4.85748 16.8794C4.79712 16.7299 4.76749 16.5699 4.77033 16.4088C4.77317 16.2476 4.80844 16.0887 4.87403 15.9415C4.93961 15.7943 5.03418 15.6619 5.15208 15.552L12.7521 7.952C12.9771 7.72728 13.2821 7.60106 13.6001 7.60106C13.9181 7.60106 14.2231 7.72728 14.4481 7.952L18.4001 11.904L24.7041 5.6H23.6001C23.2818 5.6 22.9766 5.47357 22.7515 5.24853C22.5265 5.02349 22.4001 4.71826 22.4001 4.4ZM6.00007 22.4C6.31833 22.4 6.62356 22.5264 6.8486 22.7515C7.07365 22.9765 7.20007 23.2817 7.20007 23.6V27.6C7.20007 27.9183 7.07365 28.2235 6.8486 28.4485C6.62356 28.6736 6.31833 28.8 6.00007 28.8C5.68182 28.8 5.37659 28.6736 5.15155 28.4485C4.9265 28.2235 4.80007 27.9183 4.80007 27.6V23.6C4.80007 23.2817 4.9265 22.9765 5.15155 22.7515C5.37659 22.5264 5.68182 22.4 6.00007 22.4ZM13.6001 18.8C13.6001 18.4817 13.4736 18.1765 13.2486 17.9515C13.0236 17.7264 12.7183 17.6 12.4001 17.6C12.0818 17.6 11.7766 17.7264 11.5515 17.9515C11.3265 18.1765 11.2001 18.4817 11.2001 18.8V27.6C11.2001 27.9183 11.3265 28.2235 11.5515 28.4485C11.7766 28.6736 12.0818 28.8 12.4001 28.8C12.7183 28.8 13.0236 28.6736 13.2486 28.4485C13.4736 28.2235 13.6001 27.9183 13.6001 27.6V18.8ZM18.8001 20.8C19.1183 20.8 19.4236 20.9264 19.6486 21.1515C19.8736 21.3765 20.0001 21.6817 20.0001 22V27.6C20.0001 27.9183 19.8736 28.2235 19.6486 28.4485C19.4236 28.6736 19.1183 28.8 18.8001 28.8C18.4818 28.8 18.1766 28.6736 17.9515 28.4485C17.7265 28.2235 17.6001 27.9183 17.6001 27.6V22C17.6001 21.6817 17.7265 21.3765 17.9515 21.1515C18.1766 20.9264 18.4818 20.8 18.8001 20.8ZM26.4001 15.6C26.4001 15.2817 26.2736 14.9765 26.0486 14.7515C25.8236 14.5264 25.5183 14.4 25.2001 14.4C24.8818 14.4 24.5766 14.5264 24.3515 14.7515C24.1265 14.9765 24.0001 15.2817 24.0001 15.6V27.6C24.0001 27.9183 24.1265 28.2235 24.3515 28.4485C24.5766 28.6736 24.8818 28.8 25.2001 28.8C25.5183 28.8 25.8236 28.6736 26.0486 28.4485C26.2736 28.2235 26.4001 27.9183 26.4001 27.6V15.6Z" fill="#4B5EB3"/>
</svg>
