<svg width="32" height="32" viewBox="0 0 32 32" fill="none" xmlns="http://www.w3.org/2000/svg">
<path d="M10.7814 24.8147L18.776 6.14267C18.9104 5.8308 19.1587 5.58196 19.4703 5.44691C19.7819 5.31186 20.1332 5.30079 20.4527 5.41595C20.7722 5.53111 21.0356 5.76383 21.1894 6.06663C21.3431 6.36942 21.3755 6.71946 21.28 7.04534L21.2267 7.19201L13.232 25.864C13.0976 26.1759 12.8493 26.4247 12.5378 26.5598C12.2262 26.6948 11.8748 26.7059 11.5553 26.5907C11.2359 26.4756 10.9724 26.2428 10.8187 25.9401C10.6649 25.6373 10.6325 25.2872 10.728 24.9613L10.7814 24.8147ZM3.05735 15.0573L8.39069 9.72401C8.63063 9.48488 8.9526 9.34604 9.2912 9.3357C9.6298 9.32536 9.95964 9.44429 10.2137 9.66834C10.4678 9.89238 10.6271 10.2047 10.6592 10.542C10.6913 10.8792 10.5939 11.216 10.3867 11.484L10.276 11.6093L5.88535 16L10.276 20.3907C10.5177 20.6301 10.6587 20.9528 10.6703 21.2927C10.6818 21.6327 10.563 21.9642 10.3381 22.2194C10.1132 22.4747 9.79924 22.6343 9.46052 22.6656C9.1218 22.6969 8.78391 22.5976 8.51602 22.388L8.39069 22.276L3.05735 16.9427C2.82778 16.7131 2.68987 16.4076 2.6695 16.0836C2.64912 15.7595 2.74768 15.4392 2.94669 15.1827L3.05735 15.0573ZM21.724 9.72267C21.9536 9.4931 22.2591 9.3552 22.5831 9.33482C22.9071 9.31445 23.2275 9.41301 23.484 9.61201L23.608 9.72267L28.9427 15.0573C29.1723 15.2869 29.3102 15.5924 29.3305 15.9164C29.3509 16.2405 29.2524 16.5608 29.0534 16.8173L28.9427 16.944L23.608 22.2707C23.3681 22.5098 23.0461 22.6486 22.7075 22.659C22.3689 22.6693 22.0391 22.5504 21.785 22.3263C21.5309 22.1023 21.3716 21.7899 21.3395 21.4527C21.3074 21.1155 21.4048 20.7787 21.612 20.5107L21.724 20.384L26.1134 16L21.7227 11.608C21.4727 11.358 21.3323 11.0189 21.3323 10.6653C21.3323 10.3118 21.4741 9.97271 21.724 9.72267Z" fill="#548F4A"/>
</svg>
