<svg width="42" height="45" viewBox="0 0 42 45" fill="none" xmlns="http://www.w3.org/2000/svg">
<g clip-path="url(#clip0_32236_1704)">
<path d="M20.8922 19.4994C19.0452 19.4994 17.2738 18.7656 15.9678 17.4596C14.6618 16.1536 13.9281 14.3823 13.9281 12.5353C13.9281 10.6883 14.6618 8.91697 15.9678 7.61095C17.2738 6.30494 19.0452 5.57123 20.8922 5.57123C22.7391 5.57123 24.5105 6.30494 25.8165 7.61095C27.1225 8.91697 27.8562 10.6883 27.8562 12.5353C27.8562 14.3823 27.1225 16.1536 25.8165 17.4596C24.5105 18.7656 22.7391 19.4994 20.8922 19.4994ZM20.8922 8.35685C18.5801 8.35685 16.7137 10.2232 16.7137 12.5353C16.7137 14.8474 18.5801 16.7137 20.8922 16.7137C23.2042 16.7137 25.0706 14.8474 25.0706 12.5353C25.0706 10.2232 23.2042 8.35685 20.8922 8.35685Z" fill="#278083"/>
<path d="M37.6059 30.6419C36.826 30.6419 36.2131 30.029 36.2131 29.249C36.2131 28.4691 36.826 27.8562 37.6059 27.8562C38.3859 27.8562 38.9987 27.2434 38.9987 26.4634C38.9987 24.6164 38.265 22.8451 36.959 21.5391C35.653 20.2331 33.8817 19.4994 32.0347 19.4994H29.2491C28.4691 19.4994 27.8562 18.8865 27.8562 18.1065C27.8562 17.3266 28.4691 16.7137 29.2491 16.7137C31.5611 16.7137 33.4275 14.8474 33.4275 12.5353C33.4275 10.2232 31.5611 8.35685 29.2491 8.35685C28.4691 8.35685 27.8562 7.74402 27.8562 6.96404C27.8562 6.18407 28.4691 5.57123 29.2491 5.57123C31.096 5.57123 32.8674 6.30494 34.1734 7.61095C35.4794 8.91697 36.2131 10.6883 36.2131 12.5353C36.2131 14.2624 35.6003 15.8223 34.5417 17.048C38.6923 18.1623 41.7844 21.9507 41.7844 26.4634C41.7844 28.7755 39.918 30.6419 37.6059 30.6419ZM4.17844 30.6419C1.86637 30.6419 0 28.7755 0 26.4634C0 21.9507 3.06419 18.1623 7.24262 17.048C6.21194 15.8223 5.57125 14.2624 5.57125 12.5353C5.57125 10.6883 6.30496 8.91697 7.61098 7.61095C8.91699 6.30494 10.6883 5.57123 12.5353 5.57123C13.3153 5.57123 13.9281 6.18407 13.9281 6.96404C13.9281 7.74402 13.3153 8.35685 12.5353 8.35685C10.2232 8.35685 8.35687 10.2232 8.35687 12.5353C8.35687 14.8474 10.2232 16.7137 12.5353 16.7137C13.3153 16.7137 13.9281 17.3266 13.9281 18.1065C13.9281 18.8865 13.3153 19.4994 12.5353 19.4994H9.74969C7.9027 19.4994 6.13137 20.2331 4.82535 21.5391C3.51934 22.8451 2.78562 24.6164 2.78562 26.4634C2.78562 27.2434 3.39846 27.8562 4.17844 27.8562C4.95841 27.8562 5.57125 28.4691 5.57125 29.249C5.57125 30.029 4.95841 30.6419 4.17844 30.6419ZM29.2491 38.9987H12.5353C10.2232 38.9987 8.35687 37.1324 8.35687 34.8203V32.0347C8.35687 26.6584 12.7303 22.285 18.1066 22.285H23.6778C29.0541 22.285 33.4275 26.6584 33.4275 32.0347V34.8203C33.4275 37.1324 31.5611 38.9987 29.2491 38.9987ZM18.1066 25.0706C16.2596 25.0706 14.4882 25.8043 13.1822 27.1103C11.8762 28.4163 11.1425 30.1877 11.1425 32.0347V34.8203C11.1425 35.6003 11.7553 36.2131 12.5353 36.2131H29.2491C30.029 36.2131 30.6419 35.6003 30.6419 34.8203V32.0347C30.6419 30.1877 29.9082 28.4163 28.6021 27.1103C27.2961 25.8043 25.5248 25.0706 23.6778 25.0706H18.1066Z" fill="#278083"/>
</g>
<defs>
<clipPath id="clip0_32236_1704">
<rect width="41.7844" height="44.57" fill="white"/>
</clipPath>
</defs>
</svg>
