<svg width="41" height="41" viewBox="0 0 41 41" fill="none" xmlns="http://www.w3.org/2000/svg">
<path d="M20.2478 0H20.1558C9.02404 0 0 9.0267 0 20.1617V20.2537C0 31.3887 9.02404 40.4154 20.1558 40.4154H20.2478C31.3795 40.4154 40.4035 31.3887 40.4035 20.2537V20.1617C40.4035 9.0267 31.3795 0 20.2478 0Z" fill="#EAEAEA"/>
<path d="M26.4534 8.22241H13.9515C10.4976 8.22241 7.68774 11.0331 7.68774 14.488V25.9289C7.68774 29.3838 10.4976 32.1944 13.9515 32.1944H26.4534C29.9073 32.1944 32.7172 29.3838 32.7172 25.9289V14.488C32.7172 11.0331 29.9073 8.22241 26.4534 8.22241ZM9.89739 14.488C9.89739 12.2522 11.7163 10.4327 13.9515 10.4327H26.4534C28.6886 10.4327 30.5075 12.2522 30.5075 14.488V25.9289C30.5075 28.1646 28.6886 29.9841 26.4534 29.9841H13.9515C11.7163 29.9841 9.89739 28.1646 9.89739 25.9289V14.488Z" fill="#278083"/>
<path d="M20.2023 26.035C23.4142 26.035 26.0286 23.4212 26.0286 20.2069C26.0286 16.9927 23.4156 14.3789 20.2023 14.3789C16.9891 14.3789 14.376 16.9927 14.376 20.2069C14.376 23.4212 16.9891 26.035 20.2023 26.035ZM20.2023 16.5906C22.1968 16.5906 23.819 18.2133 23.819 20.2084C23.819 22.2034 22.1968 23.8261 20.2023 23.8261C18.2078 23.8261 16.5856 22.2034 16.5856 20.2084C16.5856 18.2133 18.2078 16.5906 20.2023 16.5906Z" fill="#278083"/>
<path d="M26.5681 15.3205C27.433 15.3205 28.1379 14.6168 28.1379 13.7502C28.1379 12.8837 27.4344 12.1799 26.5681 12.1799C25.7018 12.1799 24.9983 12.8837 24.9983 13.7502C24.9983 14.6168 25.7018 15.3205 26.5681 15.3205Z" fill="#278083"/>
</svg>
