<svg width="41" height="41" viewBox="0 0 41 41" fill="none" xmlns="http://www.w3.org/2000/svg">
<path d="M20.2478 0H20.1558C9.02406 0 0 9.0267 0 20.1617V20.2537C0 31.3887 9.02406 40.4154 20.1558 40.4154H20.2478C31.3795 40.4154 40.4035 31.3887 40.4035 20.2537V20.1617C40.4035 9.0267 31.3795 0 20.2478 0Z" fill="#EAEAEA"/>
<path d="M9.63555 13.4329C9.10331 12.9388 8.83862 12.3271 8.83862 11.5993C8.83862 10.8715 9.10473 10.2329 9.63555 9.73732C10.1678 9.24315 10.8529 8.99536 11.6923 8.99536C12.5317 8.99536 13.19 9.24315 13.7208 9.73732C14.253 10.2315 14.5177 10.8531 14.5177 11.5993C14.5177 12.3455 14.2516 12.9388 13.7208 13.4329C13.1886 13.9271 12.5133 14.1749 11.6923 14.1749C10.8713 14.1749 10.1678 13.9271 9.63555 13.4329ZM14.0704 16.2677V31.4183H9.2845V16.2677H14.0704Z" fill="#278083"/>
<path d="M30.0024 17.7643C31.0456 18.8971 31.5665 20.4518 31.5665 22.4313V31.1507H27.0213V23.0458C27.0213 22.0476 26.7622 21.2716 26.2456 20.7194C25.7289 20.1672 25.0325 19.8897 24.1605 19.8897C23.2885 19.8897 22.5921 20.1658 22.0754 20.7194C21.5587 21.2716 21.2997 22.0476 21.2997 23.0458V31.1507H16.7275V16.2252H21.2997V18.2047C21.7626 17.5448 22.3868 17.0238 23.171 16.6401C23.9552 16.2563 24.8371 16.0652 25.8181 16.0652C27.5648 16.0652 28.9605 16.6316 30.0024 17.7629V17.7643Z" fill="#278083"/>
</svg>
