<svg width="32" height="32" viewBox="0 0 32 32" fill="none" xmlns="http://www.w3.org/2000/svg">
<path d="M20.3333 6.66666C19.8666 6.66666 19.472 6.50532 19.1493 6.18266C18.8266 5.85999 18.6657 5.46577 18.6666 4.99999C18.6675 4.53421 18.8288 4.13955 19.1506 3.81599C19.4724 3.49243 19.8666 3.33155 20.3333 3.33332C20.8 3.3351 21.1946 3.49643 21.5173 3.81732C21.84 4.13821 22.0009 4.53243 22 4.99999C21.9991 5.46755 21.8377 5.86221 21.516 6.18399C21.1942 6.50577 20.8 6.66666 20.3333 6.66666ZM20.3333 28.6667C19.8666 28.6667 19.472 28.5053 19.1493 28.1827C18.8266 27.86 18.6657 27.4658 18.6666 27C18.6675 26.5342 18.8288 26.1395 19.1506 25.816C19.4724 25.4924 19.8666 25.3315 20.3333 25.3333C20.8 25.3351 21.1946 25.4964 21.5173 25.8173C21.84 26.1382 22.0009 26.5324 22 27C21.9991 27.4675 21.8377 27.8622 21.516 28.184C21.1942 28.5058 20.8 28.6667 20.3333 28.6667ZM25.6666 11.3333C25.2 11.3333 24.8053 11.172 24.4826 10.8493C24.16 10.5267 23.9991 10.1324 24 9.66666C24.0009 9.20088 24.1622 8.80621 24.484 8.48266C24.8057 8.1591 25.2 7.99821 25.6666 7.99999C26.1333 8.00177 26.528 8.1631 26.8506 8.48399C27.1733 8.80488 27.3342 9.1991 27.3333 9.66666C27.3324 10.1342 27.1711 10.5289 26.8493 10.8507C26.5275 11.1724 26.1333 11.3333 25.6666 11.3333ZM25.6666 24C25.2 24 24.8053 23.8387 24.4826 23.516C24.16 23.1933 23.9991 22.7991 24 22.3333C24.0009 21.8675 24.1622 21.4729 24.484 21.1493C24.8057 20.8258 25.2 20.6649 25.6666 20.6667C26.1333 20.6684 26.528 20.8298 26.8506 21.1507C27.1733 21.4715 27.3342 21.8658 27.3333 22.3333C27.3324 22.8009 27.1711 23.1955 26.8493 23.5173C26.5275 23.8391 26.1333 24 25.6666 24ZM27.6666 17.6667C27.2 17.6667 26.8053 17.5053 26.4826 17.1827C26.16 16.86 25.9991 16.4658 26 16C26.0009 15.5342 26.1622 15.1395 26.484 14.816C26.8057 14.4924 27.2 14.3315 27.6666 14.3333C28.1333 14.3351 28.528 14.4964 28.8506 14.8173C29.1733 15.1382 29.3342 15.5324 29.3333 16C29.3324 16.4675 29.1711 16.8622 28.8493 17.184C28.5275 17.5058 28.1333 17.6667 27.6666 17.6667ZM16 29.3333C14.1555 29.3333 12.4222 28.9831 10.8 28.2827C9.17774 27.5822 7.76663 26.6324 6.56663 25.4333C5.36663 24.2342 4.41685 22.8231 3.71729 21.2C3.01774 19.5769 2.66752 17.8435 2.66663 16C2.66574 14.1564 3.01596 12.4231 3.71729 10.8C4.41863 9.17688 5.36841 7.76577 6.56663 6.56666C7.76485 5.36755 9.17596 4.41777 10.8 3.71732C12.424 3.01688 14.1573 2.66666 16 2.66666V5.33332C13.0222 5.33332 10.5 6.36666 8.43329 8.43332C6.36663 10.5 5.33329 13.0222 5.33329 16C5.33329 18.9778 6.36663 21.5 8.43329 23.5667C10.5 25.6333 13.0222 26.6667 16 26.6667V29.3333ZM16 18.6667C15.2666 18.6667 14.6391 18.4058 14.1173 17.884C13.5955 17.3622 13.3342 16.7342 13.3333 16C13.3333 15.8889 13.3391 15.7724 13.3506 15.6507C13.3622 15.5289 13.3897 15.412 13.4333 15.3L10.6666 12.5333L12.5333 10.6667L15.3 13.4333C15.3889 13.4111 15.6222 13.3778 16 13.3333C16.7333 13.3333 17.3613 13.5947 17.884 14.1173C18.4066 14.64 18.6675 15.2675 18.6666 16C18.6657 16.7324 18.4049 17.3604 17.884 17.884C17.3631 18.4075 16.7351 18.6684 16 18.6667Z" fill="#B25E48"/>
</svg>
