<svg width="26" height="26" viewBox="0 0 26 26" fill="none" xmlns="http://www.w3.org/2000/svg">
<path d="M4.88757 20.118C4.39981 20.118 3.99287 19.9549 3.66675 19.6288C3.34063 19.3027 3.17722 18.8954 3.17651 18.4069V7.00549C3.17651 6.51773 3.33993 6.11079 3.66675 5.78467C3.99357 5.45855 4.40016 5.29514 4.88651 5.29443H20.5253C21.0124 5.29443 21.419 5.45785 21.7451 5.78467C22.0712 6.11149 22.2346 6.51843 22.2353 7.00549V18.408C22.2353 18.895 22.0719 19.302 21.7451 19.6288C21.4183 19.9556 21.0117 20.1187 20.5253 20.118H4.88757ZM21.1765 7.29032L13.1803 12.5251C13.1055 12.564 13.0299 12.5968 12.9537 12.6236C12.8767 12.6497 12.7942 12.6628 12.7059 12.6628C12.6177 12.6628 12.5351 12.6497 12.4582 12.6236C12.3812 12.5975 12.3057 12.5647 12.2316 12.5251L4.23534 7.28926V18.4069C4.23534 18.5975 4.2964 18.7538 4.41851 18.876C4.54063 18.9981 4.69698 19.0591 4.88757 19.0591H20.5253C20.7152 19.0591 20.8712 18.9981 20.9933 18.876C21.1155 18.7538 21.1765 18.5975 21.1765 18.4069V7.29032ZM12.7059 11.6474L20.8504 6.35326H4.56145L12.7059 11.6474ZM4.23534 7.51373V6.65502V6.69102V6.35326V6.69208V6.63702V7.51373Z" fill="white"/>
</svg>
