<svg width="26" height="26" viewBox="0 0 26 26" fill="none" xmlns="http://www.w3.org/2000/svg">
<path d="M4.88757 20.1177C4.39981 20.1177 3.99287 19.9547 3.66675 19.6285C3.34063 19.3024 3.17722 18.8951 3.17651 18.4067V7.00525C3.17651 6.51748 3.33993 6.11054 3.66675 5.78442C3.99357 5.45831 4.40016 5.2949 4.88651 5.29419H20.5253C21.0124 5.29419 21.419 5.4576 21.7451 5.78442C22.0712 6.11125 22.2346 6.51819 22.2353 7.00525V18.4077C22.2353 18.8948 22.0719 19.3017 21.7451 19.6285C21.4183 19.9554 21.0117 20.1184 20.5253 20.1177H4.88757ZM21.1765 7.29007L13.1803 12.5249C13.1055 12.5637 13.0299 12.5965 12.9537 12.6234C12.8767 12.6495 12.7942 12.6625 12.7059 12.6625C12.6177 12.6625 12.5351 12.6495 12.4582 12.6234C12.3812 12.5972 12.3057 12.5644 12.2316 12.5249L4.23534 7.28901V18.4067C4.23534 18.5972 4.2964 18.7536 4.41851 18.8757C4.54063 18.9978 4.69698 19.0589 4.88757 19.0589H20.5253C20.7152 19.0589 20.8712 18.9978 20.9933 18.8757C21.1155 18.7536 21.1765 18.5972 21.1765 18.4067V7.29007ZM12.7059 11.6471L20.8504 6.35301H4.56145L12.7059 11.6471ZM4.23534 7.51348V6.65478V6.69078V6.35301V6.69184V6.63678V7.51348Z" fill="#278083"/>
</svg>
