<svg width="26" height="26" viewBox="0 0 26 26" fill="none" xmlns="http://www.w3.org/2000/svg">
<path d="M22.1815 12.5934H19.0332C18.6157 12.5934 18.2153 12.7593 17.9201 13.0545C17.6249 13.3497 17.459 13.7501 17.459 14.1676V18.103C17.459 18.5205 17.6249 18.9209 17.9201 19.2161C18.2153 19.5113 18.6157 19.6772 19.0332 19.6772H20.6073C21.0248 19.6772 21.4252 19.5113 21.7204 19.2161C22.0156 18.9209 22.1815 18.5205 22.1815 18.103V12.5934ZM22.1815 12.5934C22.1815 11.3471 21.9348 10.113 21.4557 8.96245C20.9765 7.81187 20.2744 6.7675 19.3898 5.88954C18.5051 5.01158 17.4555 4.31739 16.3013 3.84698C15.1471 3.37658 13.9112 3.13926 12.6649 3.14871C11.4186 3.13926 10.1827 3.37658 9.02854 3.84698C7.87436 4.31739 6.8247 5.01158 5.94005 5.88954C5.05541 6.7675 4.35328 7.81187 3.87414 8.96245C3.395 10.113 3.14832 11.3471 3.14832 12.5934V18.103C3.14832 18.5205 3.31416 18.9209 3.60938 19.2161C3.90459 19.5113 4.30498 19.6772 4.72248 19.6772H6.29664C6.71413 19.6772 7.11453 19.5113 7.40974 19.2161C7.70495 18.9209 7.8708 18.5205 7.8708 18.103V14.1676C7.8708 13.7501 7.70495 13.3497 7.40974 13.0545C7.11453 12.7593 6.71413 12.5934 6.29664 12.5934H3.14832" stroke="white" stroke-width="1.57416" stroke-linecap="round" stroke-linejoin="round"/>
<path d="M22.1815 18.103V20.4643C22.1815 21.2993 21.8498 22.1 21.2594 22.6905C20.6689 23.2809 19.8682 23.6126 19.0332 23.6126H13.3804" stroke="white" stroke-width="1.57416" stroke-linecap="round" stroke-linejoin="round"/>
</svg>
