<svg width="21" height="21" viewBox="0 0 21 21" fill="none" xmlns="http://www.w3.org/2000/svg">
<path fill-rule="evenodd" clip-rule="evenodd" d="M16.6162 1.74902C16.8985 3.06353 17.9253 4.09036 19.2398 4.37263C17.9253 4.6549 16.8985 5.68173 16.6162 6.99623C16.3339 5.68173 15.3071 4.6549 13.9926 4.37263C15.3071 4.09036 16.3339 3.06353 16.6162 1.74902ZM7.93384 1.92393C8.73098 5.63609 11.6307 8.53585 15.3429 9.33299C11.6307 10.1301 8.73098 13.0299 7.93384 16.7421C7.1367 13.0299 4.23693 10.1301 0.52478 9.33299C4.23693 8.53585 7.1367 5.63609 7.93384 1.92393ZM19.2398 15.7416C17.4871 15.3652 16.118 13.9961 15.7416 12.2434C15.3653 13.9961 13.9962 15.3652 12.2435 15.7416C13.9962 16.1179 15.3653 17.487 15.7416 19.2397C16.118 17.487 17.4871 16.1179 19.2398 15.7416Z" fill="#29A1B6"/>
</svg>
