<svg width="45" height="45" viewBox="0 0 45 45" fill="none" xmlns="http://www.w3.org/2000/svg">
<g clip-path="url(#clip0_32235_1642)">
<path fill-rule="evenodd" clip-rule="evenodd" d="M17.0836 40.1105C16.6857 39.8377 16.3249 39.5144 16.0103 39.1487L15.6761 38.9444L17.2321 37.2769L18.6396 35.7227C18.7055 35.6813 18.7623 35.6271 18.8066 35.5632C18.8509 35.4992 18.8818 35.427 18.8974 35.3508C18.913 35.2746 18.913 35.1961 18.8975 35.1199C18.8819 35.0437 18.851 34.9715 18.8068 34.9075C18.7636 34.8408 18.7076 34.7834 18.6419 34.7387C18.5762 34.6941 18.5022 34.663 18.4243 34.6474C18.3464 34.6319 18.2661 34.6321 18.1883 34.648C18.1105 34.664 18.0366 34.6954 17.9712 34.7404L16.0289 36.0179C15.6018 36.3336 14.8256 36.705 14.1776 37.1488C13.8387 37.4185 13.5556 37.7515 13.3438 38.1292C13.2507 38.3227 13.2023 38.5347 13.2023 38.7494C13.2023 38.9642 13.2507 39.1761 13.3438 39.3696C13.6242 39.9248 14.0086 40.4206 14.4728 40.8328C14.8689 41.1361 15.2886 41.4017 15.7318 41.6294C16.6398 42.0547 17.5831 42.3332 18.5097 42.7584C18.665 42.8461 18.8483 42.8699 19.0209 42.8249C19.1934 42.7798 19.3417 42.6694 19.4344 42.517C19.4829 42.4415 19.5152 42.3567 19.5293 42.268C19.5434 42.1793 19.539 42.0887 19.5163 42.0018C19.4936 41.9149 19.4532 41.8337 19.3975 41.7632C19.3419 41.6927 19.2723 41.6345 19.193 41.5923C18.6025 40.9981 17.7873 40.5914 17.0836 40.1105ZM24.435 32.2782C24.287 32.2291 24.1259 32.2383 23.9845 32.3038C23.843 32.3694 23.7319 32.4864 23.6737 32.631C23.0646 33.8157 22.3794 34.9261 21.8242 36.1294C21.5752 36.6364 21.3521 37.1558 21.1557 37.6854C20.9719 38.2221 20.7862 38.7587 20.6395 39.2953C20.2681 40.5915 20.0082 41.8876 19.7501 43.2022C19.7246 43.2862 19.7159 43.3744 19.7245 43.4618C19.7331 43.5492 19.7588 43.634 19.8002 43.7114C19.8416 43.7888 19.8978 43.8573 19.9657 43.913C20.0335 43.9687 20.1117 44.0105 20.1957 44.036C20.3676 44.0874 20.5528 44.0696 20.7117 43.9864C20.8706 43.9031 20.9907 43.7609 21.0462 43.5903C21.5661 42.3499 22.1751 41.1838 22.7118 39.8877C23.0646 39.0558 23.3988 38.2406 23.6755 37.3883C24.1583 35.9437 24.435 34.4637 24.7859 33.0005C24.8283 32.8578 24.8155 32.7044 24.7502 32.5706C24.6849 32.4369 24.5717 32.3325 24.4331 32.2782M29.8961 36.2408C29.3001 35.8756 28.6818 35.5481 28.0448 35.2603C27.4445 34.9779 26.826 34.7359 26.1934 34.5362C26.1218 34.5024 26.0441 34.4833 25.965 34.48C25.8858 34.4767 25.8068 34.4893 25.7326 34.517C25.6584 34.5446 25.5904 34.5869 25.5328 34.6412C25.4751 34.6955 25.4289 34.7608 25.3968 34.8333C25.3634 34.9036 25.3446 34.9799 25.3415 35.0577C25.3384 35.1355 25.3511 35.2131 25.3789 35.2858C25.4067 35.3586 25.4489 35.4249 25.5031 35.4809C25.5572 35.5368 25.6222 35.5812 25.6939 35.6113C26.2052 35.9369 26.6923 36.2946 27.1553 36.6846C27.6208 37.0634 28.059 37.4706 28.47 37.9064L28.6928 38.0178C28.4824 38.352 28.2478 38.6671 27.9891 38.963L27.0829 39.9991L25.4897 41.6109C25.3385 41.7097 25.2323 41.8641 25.194 42.0406C25.1558 42.2172 25.1886 42.4017 25.2854 42.5542C25.3901 42.6991 25.5459 42.7989 25.7214 42.8334C25.8968 42.8678 26.0788 42.8344 26.2306 42.7399L28.3047 41.3695L29.5266 40.4429C29.9289 40.0715 30.2928 39.6642 30.6184 39.2211C30.8895 38.8311 31.0603 38.3799 31.1198 37.9064C31.1492 37.734 31.1377 37.5571 31.086 37.39C31.0344 37.2229 30.9442 37.0703 30.8227 36.9445C30.5392 36.6782 30.2287 36.4424 29.8961 36.2408ZM26.3606 15.6906C26.3882 15.5149 26.3745 15.3351 26.3207 15.1655C26.2669 14.9959 26.1744 14.8411 26.0505 14.7134C25.9265 14.5858 25.7746 14.4886 25.6067 14.4297C25.4388 14.3708 25.2596 14.3518 25.083 14.3741C24.7778 14.4114 24.4968 14.5591 24.293 14.7893C24.0892 15.0195 23.9767 15.3163 23.9767 15.6238C23.9767 15.9313 24.0892 16.2281 24.293 16.4583C24.4968 16.6885 24.7778 16.8362 25.083 16.8735C25.2481 16.8957 25.416 16.8811 25.5747 16.8308C25.7334 16.7804 25.8791 16.6956 26.0012 16.5824C26.1233 16.4692 26.2188 16.3303 26.2809 16.1758C26.3431 16.0213 26.3703 15.8569 26.3606 15.6906ZM19.6015 15.8745C19.6292 15.6988 19.6156 15.519 19.5618 15.3495C19.5079 15.18 19.4154 15.0253 19.2914 14.8977C19.1675 14.7702 19.0155 14.6732 18.8476 14.6146C18.6797 14.5559 18.5004 14.5372 18.324 14.5598C18.0188 14.5971 17.7378 14.7447 17.5339 14.975C17.3301 15.2052 17.2176 15.502 17.2176 15.8095C17.2176 16.1169 17.3301 16.4138 17.5339 16.644C17.7378 16.8742 18.0188 17.0219 18.324 17.0592C18.4877 17.0743 18.6527 17.0548 18.8084 17.0019C18.964 16.949 19.1067 16.8639 19.2273 16.7521C19.3478 16.6403 19.4434 16.5044 19.5079 16.3532C19.5724 16.2019 19.6043 16.0388 19.6015 15.8745ZM19.6386 21.7998C20.036 22.0319 20.478 22.1767 20.9348 22.225C21.3749 22.2769 21.8209 22.2454 22.2494 22.1322C23.222 21.8859 24.083 21.3186 24.6931 20.5222C24.8195 20.3937 24.8904 20.2207 24.8904 20.0404C24.8904 19.8601 24.8195 19.687 24.6931 19.5585C24.5647 19.4326 24.392 19.3621 24.2122 19.3621C24.0323 19.3621 23.8596 19.4326 23.7312 19.5585C23.3599 19.7908 22.9452 19.9451 22.5123 20.0122C22.0795 20.0792 21.6375 20.0575 21.2133 19.9485C20.9812 19.9232 20.7515 19.8797 20.5262 19.8185C19.9278 19.7095 19.3927 19.3785 19.0277 18.8919C18.9625 18.7456 18.8427 18.6307 18.6938 18.5717C18.5449 18.5127 18.3788 18.5143 18.2311 18.5762C18.1575 18.6045 18.0904 18.6476 18.0341 18.7029C17.9778 18.7582 17.9335 18.8245 17.9039 18.8976C17.8743 18.9708 17.8601 19.0492 17.8621 19.1281C17.864 19.2069 17.8822 19.2846 17.9155 19.3561C18.0062 19.8648 18.2076 20.3473 18.5054 20.7695C18.8031 21.1918 19.19 21.5435 19.6386 21.7998ZM8.75173 34.5566C8.64032 35.287 8.58462 36.021 8.58462 36.7588C8.54748 37.4929 8.54748 38.2276 8.58462 38.963C8.74245 40.6713 9.05255 42.3629 9.5112 44.0174C9.54325 44.1917 9.64321 44.3462 9.78911 44.4468C9.93501 44.5474 10.1149 44.586 10.2892 44.554C10.3767 44.5406 10.4605 44.5094 10.5355 44.4624C10.6104 44.4154 10.675 44.3536 10.7253 44.2807C10.7755 44.2079 10.8104 44.1255 10.8277 44.0387C10.845 43.952 10.8444 43.8625 10.8259 43.776C10.8259 42.8513 10.6959 41.9247 10.6773 40.9814C10.6588 40.0362 10.6773 39.1282 10.6773 38.2035V32.1315C10.6773 30.6868 9.12311 32.0015 8.82601 33.0562C8.90029 33.6671 8.84458 33.9457 8.75173 34.5566ZM28.119 26.8357C27.9536 26.7652 27.7675 26.7605 27.5987 26.8226C27.43 26.8847 27.2913 27.009 27.211 27.1699C26.7723 27.847 26.1761 28.4078 25.4734 28.8043C24.7707 29.2007 23.9824 29.4211 23.176 29.4464C22.225 29.5645 21.2598 29.4822 20.3424 29.205C19.7445 29.0458 19.1846 28.7686 18.6953 28.3899C18.351 28.1005 18.0724 27.7409 17.8783 27.3352C17.8783 27.168 17.6202 27.0195 17.1207 27.3352C17.1207 27.3352 16.4912 28.0018 16.5841 28.2413C16.7438 28.7947 17.0204 29.3072 17.3992 29.7417C18.1459 30.6177 19.129 31.2604 20.231 31.593C21.2928 31.8862 22.408 31.9306 23.4898 31.723C24.5855 31.5467 25.618 31.0937 26.4895 30.4067C27.361 29.7198 28.0427 28.8217 28.47 27.7975C28.5186 27.7128 28.5482 27.6185 28.5564 27.5212C28.5647 27.4239 28.5516 27.326 28.518 27.2343C28.4843 27.1426 28.431 27.0594 28.3618 26.9905C28.2925 26.9217 28.2109 26.8688 28.119 26.8357ZM33.5987 34.7608C33.5987 35.8712 33.8587 36.9817 34.0072 38.0921C34.2486 39.7391 34.5439 41.3695 34.7481 43.0537C34.7433 43.1441 34.757 43.2345 34.7883 43.3194C34.8196 43.4043 34.8679 43.482 34.9302 43.5476C34.9924 43.6133 35.0674 43.6656 35.1506 43.7013C35.2337 43.737 35.3233 43.7555 35.4138 43.7555C35.5043 43.7555 35.5939 43.737 35.677 43.7013C35.7602 43.6656 35.8352 43.6133 35.8975 43.5476C35.9597 43.482 36.008 43.4043 36.0393 43.3194C36.0706 43.2345 36.0843 43.1441 36.0795 43.0537C36.0795 41.3695 36.228 39.7224 36.0795 38.0549C36.0795 37.3326 36.0795 36.6289 35.9124 35.927C35.8467 35.2168 35.7357 34.5116 35.58 33.8157C35.4996 33.3535 35.3942 32.8961 35.2643 32.4453C35.0805 31.7044 33.673 30.3712 33.3035 31.3535C33.4149 32.8148 33.4149 33.279 33.6006 34.759" fill="#278083"/>
<path fill-rule="evenodd" clip-rule="evenodd" d="M43.0241 40.2386C42.7397 39.0845 42.3551 37.9574 41.8747 36.8702C41.0508 35.0806 40.0059 33.4012 38.7644 31.8715C37.5036 30.3488 36.0533 28.9933 34.4508 27.8346C32.2642 26.2887 29.7691 25.234 27.1366 24.7429C27.7731 24.2035 28.3339 23.5808 28.8041 22.8916C30.239 20.6928 30.9744 18.1111 30.9135 15.4863C30.9183 15.3935 30.9042 15.3006 30.872 15.2134C30.8398 15.1261 30.7902 15.0464 30.7262 14.9789C30.6621 14.9115 30.5851 14.8578 30.4996 14.8211C30.4142 14.7844 30.3222 14.7655 30.2292 14.7655C30.1362 14.7655 30.0442 14.7844 29.9588 14.8211C29.8733 14.8578 29.7963 14.9115 29.7323 14.9789C29.6682 15.0464 29.6186 15.1261 29.5864 15.2134C29.5542 15.3006 29.5401 15.3935 29.5449 15.4863C29.4478 17.4131 28.8681 19.2846 27.8589 20.9288C27.0152 22.4651 25.6077 23.6136 23.9334 24.132C22.4695 24.5159 20.922 24.4314 19.5085 23.8906C18.5387 23.561 17.6362 23.0597 16.8439 22.4106C15.8314 21.5658 15.0407 20.4864 14.5404 19.2664C14.0401 18.0464 13.8454 16.7226 13.9731 15.4102C13.9857 15.3334 13.9826 15.2548 13.9639 15.1793C13.9453 15.1037 13.9115 15.0327 13.8646 14.9706C13.8178 14.9084 13.7588 14.8564 13.6913 14.8177C13.6237 14.779 13.5491 14.7544 13.4718 14.7454C13.3127 14.7252 13.1521 14.7682 13.0244 14.865C12.8966 14.9619 12.8119 15.1049 12.7884 15.2635C12.4789 16.8199 12.5623 18.4289 13.0311 19.945C13.4999 21.4611 14.3394 22.8363 15.4735 23.9463C15.8634 24.3177 16.2831 24.6513 16.7324 24.9471C14.3787 25.4861 12.1483 26.4658 10.1591 27.8346C8.55868 28.9811 7.10938 30.3249 5.84554 31.8343C4.60404 33.3641 3.55914 35.0434 2.73526 36.8331C2.25474 37.9209 1.87014 39.0486 1.58584 40.2033C1.27458 41.3735 1.14987 42.5855 1.21632 43.7945C1.19934 43.8829 1.20265 43.974 1.22602 44.0609C1.24939 44.1478 1.29219 44.2283 1.35121 44.2963C1.41022 44.3642 1.4839 44.4179 1.56669 44.4532C1.64947 44.4885 1.7392 44.5046 1.8291 44.5001C1.98606 44.4943 2.13434 44.4266 2.24151 44.3118C2.34868 44.1969 2.40603 44.0444 2.40102 43.8874C2.4398 42.817 2.65305 41.7602 3.03236 40.7585C3.39799 39.7319 3.85605 38.7406 4.40088 37.7968C5.27311 36.2684 6.30984 34.8401 7.49259 33.5371C8.03109 32.889 10.1405 31.0563 11.1042 30.0759C11.7925 29.4829 12.5142 28.9333 13.2694 28.4269C15.1393 27.5091 17.0768 26.7356 19.0647 26.1133C20.8498 26.753 22.788 26.8307 24.6186 26.3361C24.8043 26.3361 24.9714 26.1133 25.1571 26.039C26.0521 26.2024 26.9342 26.4184 27.8032 26.687C29.1005 27.1154 30.3437 27.6931 31.5077 28.4084C33.6013 29.848 35.488 31.5673 37.1155 33.5185C38.2435 34.8261 39.2597 36.2262 40.1533 37.7039C40.6993 38.6497 41.156 39.637 41.5237 40.6657C41.9007 41.6684 42.1142 42.725 42.1532 43.7945C42.1504 43.8919 42.1715 43.9885 42.2148 44.0758C42.2581 44.1631 42.3222 44.2384 42.4015 44.2951C42.4807 44.3517 42.5727 44.3881 42.6693 44.4008C42.7659 44.4136 42.8641 44.4024 42.9554 44.3683C43.065 44.3266 43.1598 44.2534 43.2278 44.1579C43.2959 44.0624 43.3342 43.9489 43.3379 43.8317C43.4219 42.6254 43.3154 41.4135 43.0222 40.2404" fill="#278083"/>
<path fill-rule="evenodd" clip-rule="evenodd" d="M8.78867 15.2264C9.71477 14.9361 10.6622 14.7188 11.6223 14.5765C13.0836 14.337 14.584 14.207 16.0472 14.0603C17.8985 13.8375 19.527 13.7261 21.2317 13.6147C22.9363 13.5033 24.6929 13.3918 26.4161 13.4104C28.7595 13.429 31.0991 13.6184 33.4147 13.986C33.5852 14.0099 33.7585 13.9686 33.8999 13.8705C34.0414 13.7723 34.1408 13.6245 34.1782 13.4565C34.2157 13.2884 34.1885 13.1124 34.1021 12.9635C34.0156 12.8146 33.8763 12.7036 33.7118 12.6528C33.3033 12.5414 32.9133 12.5043 32.5067 12.4114C32.6793 11.8098 32.7666 11.1859 32.7666 10.5601C32.6871 9.47599 32.4494 8.40936 32.061 7.39411C31.7498 6.59244 31.3598 5.82364 30.8967 5.099C30.412 4.36559 29.8256 3.70475 29.155 3.13627C27.9942 2.17503 26.5798 1.57069 25.0828 1.39637C24.4764 0.80583 23.7302 0.378465 22.914 0.154114C21.5254 -0.142292 20.0796 -0.0128607 18.7657 0.525491C18.0872 0.788407 17.4609 1.17008 16.9163 1.65262C16.8131 1.77489 16.7199 1.9053 16.6377 2.04257C15.1707 2.54348 13.8446 3.38765 12.7698 4.50479C12.2251 5.06434 11.756 5.68144 11.3623 6.35611C10.961 7.04986 10.6443 7.78922 10.419 8.55837C10.0383 10.1345 10.0383 11.7786 10.419 13.3547C9.74621 13.5456 9.08473 13.7744 8.43772 14.0399C8.35269 14.0622 8.27346 14.1026 8.20541 14.1582C8.13736 14.2139 8.08208 14.2836 8.04333 14.3625C8.00458 14.4414 7.98326 14.5277 7.98083 14.6156C7.97839 14.7035 7.99489 14.7908 8.02921 14.8718C8.05396 14.9464 8.09373 15.0152 8.14607 15.0738C8.19841 15.1325 8.26222 15.1798 8.33355 15.2129C8.40489 15.2459 8.48223 15.264 8.56083 15.266C8.63942 15.2681 8.7176 15.2539 8.79053 15.2246M28.3435 5.5038C28.9934 6.33197 29.5579 7.22699 30.0277 8.17028C30.3991 8.82391 30.7018 9.5091 30.9357 10.2259C31.1028 10.8275 31.1456 11.457 31.0657 12.0772C29.2732 11.7058 27.4646 11.4588 25.6399 11.3363C25.807 10.7421 26.0113 10.133 26.1208 9.48496C26.309 8.5788 26.4575 7.66521 26.5665 6.7442C26.6314 5.98054 26.6314 5.21275 26.5665 4.44909C26.52 4.06824 26.4264 3.69464 26.2879 3.33681C26.5108 3.48536 26.7336 3.63391 26.936 3.80103C27.4572 4.32468 27.9263 4.89226 28.3435 5.5038ZM19.6199 2.63677C20.4702 2.2905 21.4016 2.19388 22.3049 2.35824C22.7284 2.43854 23.1282 2.61354 23.4745 2.87013C23.8208 3.12673 24.1047 3.45829 24.3048 3.84003C24.5109 4.2374 24.6372 4.67006 24.6762 5.11757C24.7207 5.66101 24.7207 6.20384 24.6762 6.74605C24.6762 7.70978 24.5833 8.59737 24.4905 9.3754C24.3976 10.0006 24.2677 10.6177 24.1005 11.2267C22.7623 11.1524 21.4235 11.1524 20.0841 11.2267C19.3971 11.2267 18.6952 11.431 18.01 11.5424C17.8428 10.8368 17.6943 10.1534 17.6014 9.46825C17.516 8.57694 17.4789 7.68192 17.49 6.78319C17.446 6.16687 17.446 5.5482 17.49 4.93188C17.542 4.59392 17.6472 4.27268 17.8057 3.96815C17.9568 3.68167 18.1802 3.4397 18.4538 3.26625C18.8159 3.01013 19.2074 2.80003 19.6199 2.63677ZM13.3436 7.55937C13.6531 6.97136 14.0109 6.41553 14.4169 5.89189C14.761 5.43757 15.1442 5.01791 15.5663 4.63292C15.5564 5.37815 15.6121 6.11904 15.7334 6.85561C15.8523 7.85833 16.0305 8.85176 16.2682 9.83591C16.4316 10.5131 16.6297 11.1797 16.8624 11.8358L15.7501 12.0029C14.3798 12.3371 13.0484 12.6324 11.6966 13.0205C11.7411 11.7504 12.0104 10.4951 12.4913 9.31784C12.7463 8.71621 13.0304 8.13005 13.3436 7.55937Z" fill="#278083"/>
</g>
<defs>
<clipPath id="clip0_32235_1642">
<rect width="44.5652" height="44.5652" fill="white"/>
</clipPath>
</defs>
</svg>
