<svg width="41" height="41" viewBox="0 0 41 41" fill="none" xmlns="http://www.w3.org/2000/svg">
<path d="M40.4021 20.2084C40.4021 30.4146 32.8389 38.8522 23.0137 40.2214C22.095 40.3489 21.1551 40.4154 20.201 40.4154C19.0998 40.4154 18.0183 40.3276 16.9651 40.1577C7.34661 38.6087 0 30.2659 0 20.2084C0 9.04791 9.04524 0 20.2025 0C31.3597 0 40.4049 9.04791 40.4049 20.2084H40.4021Z" fill="#EAEAEA"/>
<path d="M8.1933 8.91333L17.5103 21.3737L8.13525 31.5048H10.2458L18.4545 22.6353L25.0862 31.5048H32.2672L22.4265 18.3435L31.1532 8.91333H29.0427L21.4837 17.0819L15.3757 8.91333H8.1947H8.1933ZM11.2961 10.468H14.5943L29.1616 29.9501H25.8634L11.2961 10.468Z" fill="#278083"/>
</svg>
